
        <svg xmlns="http://www.w3.org/2000/svg" xmlns:xlink="http://www.w3.org/1999/xlink" version="1.1" width="3240.9638554216867" height="1408.8855421686749" viewBox="0 -12.048192771084338 3240.9638554216867 1408.8855421686749">
			
			<g transform="scale(12.048192771084338) translate(10, 10)">
				<defs id="SvgjsDefs7615"/><g id="SvgjsG7616" featureKey="LwVBM5-0" transform="matrix(0.08333333333333334,0,0,0.08333333333333334,6,-1)" fill="#000"><g xmlns="http://www.w3.org/2000/svg" transform="translate(-550.58697,-4616.7709)"><path style="" d="m 550.58697,5192.3958 0,-575.6249 60,0 60,0 0,575.6249 0,575.625 -60,0 -60,0 0,-575.625 z"/></g></g><g id="SvgjsG7617" featureKey="YhTCwJ-0" transform="matrix(4.015258023376413,0,0,4.015258023376413,29.036338275425205,-18.433855189694267)" fill="#000"><path d="M0.72 19.44 l0.32 0 l-0.04 0.04 c0.34 0.04 0.6 0.06 1.1 0.06 c0.26 -0.82 0.12 -2.2 0.18 -2.22 c0 -0.7 -0.06 -1.4 -0.06 -2.08 c0 -0.04 0.04 -0.08 0.04 -0.26 c0 -0.08 -0.02 -0.36 -0.04 -0.28 c0 -0.04 0.04 -0.14 0.04 -0.24 c0 -0.26 -0.02 -1.28 -0.02 -4.36 c0 -0.1 0.02 -0.14 0.02 -0.28 c0 -0.22 -0.02 -0.6 -0.02 -0.64 c0 -1 0.04 -1.8 0.04 -2.48 c0 -0.56 -0.04 -0.96 -0.22 -1.02 c-0.98 0 -1.2 0.04 -1.38 0.04 c-0.04 0 -0.44 0.08 -0.44 -0.28 c0 -0.44 0.12 -0.32 0.22 -0.46 l5.12 0 c0.04 0 0.08 -0.04 0.12 -0.04 c1.96 0 4.46 0.26 4.54 0.54 c0 -0.02 0.02 -0.02 0.02 -0.02 c0.06 0 0.14 0.26 0.6 0.26 c0.02 0 0.02 -0.02 0.04 -0.02 c0.06 0 0.06 0.2 0.44 0.34 c0 -0.02 0.02 -0.02 0.02 -0.02 c0.08 0 0.22 0.42 0.34 0.42 c-0.04 0.04 0.58 0.24 0.58 0.7 c0.04 0.5 0.36 0.26 0.36 1.22 c0 0.56 -0.06 0.86 -0.06 1.02 c0 0.04 0 0.06 0.02 0.08 c-0.12 0.1 -0.12 0.52 -0.24 0.54 c0 0.42 -0.56 0.66 -0.66 0.94 c0 0.24 -0.32 0.2 -0.78 0.66 c-0.02 -0.02 -0.02 -0.02 -0.04 -0.02 c-0.1 0 -0.36 0.22 -0.64 0.22 c-0.4 0.1 -0.06 0.28 -0.66 0.28 c0 0.66 1.48 0.26 1.48 0.68 c0.02 0.02 0.3 0.22 0.56 0.22 c0.1 0.24 0.42 0.22 0.66 0.44 c0.16 0.1 0.34 0.5 0.54 0.7 c0.16 -0.04 0.18 0.54 0.3 0.54 l-0.02 -0.02 c0 0.2 0.3 0.58 0.3 1 c0 2.24 -0.38 1.38 -0.38 2.16 c-0.16 0 -0.18 0.3 -0.3 0.42 c-0.4 0.18 0.08 0.26 -1.66 1.16 c0 0.04 -0.32 0.34 -1.14 0.34 c-0.12 0 -0.28 0.16 -0.5 0.16 c-4.48 0.16 -4.02 0.22 -8.3 0.22 c-0.46 0 -0.84 -0.02 -0.82 -0.08 l0 -0.38 c0.18 -0.06 0.4 -0.16 0.42 -0.2 z M2.26 19.88 c-0.02 0 -0.02 0.02 -0.02 0.02 c0 0.02 0 0.02 0.02 0.02 c0 0 0.02 0 0.02 -0.02 z M6.2 19.88 c-0.02 0 -0.04 0.02 -0.04 0.04 s0.02 0.04 0.04 0.04 l0 -0.08 z M8.44 19.88 l0.04 0.04 l0 -0.04 l-0.04 0 z M2.44 19.76 c0 0.12 0.14 0.12 0.2 0.12 c-0.04 -0.02 -0.06 -0.14 -0.08 -0.16 c-0.08 0 -0.08 0 -0.12 0.04 z M8.54 19.84 c0 0 -0.02 0.02 -0.02 0.04 l0.04 0 c0 -0.02 -0.02 -0.04 -0.02 -0.04 z M1.1 19.64 c0 0.1 0.02 0.12 0.04 0.12 s0.06 0 0.06 -0.02 c0 -0.06 -0.06 -0.06 -0.1 -0.1 z M0.88 19.68 c0.02 0.04 0.08 0.02 0.12 0.02 c-0.04 -0.02 -0.08 -0.02 -0.12 -0.02 z M2.26 19.68 c-0.02 0 -0.02 0.02 -0.02 0.02 l0.04 0 z M6.68 19.68 c0.02 0.02 0.02 0.04 0.04 0.04 l0.02 -0.02 l0 -0.06 z M9.3 19.68 c-0.02 0 -0.02 0.02 -0.02 0.02 l0.04 0 c0 0.02 0 -0.02 -0.02 -0.02 z M1.3 19.68 c0 -0.02 -0.02 -0.02 -0.02 -0.02 c-0.02 0 -0.02 0 -0.02 0.02 s0 0.02 0.02 0.02 c0 0 0.02 0 0.02 -0.02 z M1.42 19.64 c-0.02 0 -0.04 0.02 -0.04 0.04 s0.02 0.02 0.04 0.02 s0.02 0 0.02 -0.02 s0 -0.04 -0.02 -0.04 z M0.6 19.6 c-0.02 0 -0.04 0.02 -0.04 0.04 s0.02 0.04 0.04 0.04 c0 0 0.02 -0.02 0.02 -0.04 s-0.02 -0.04 -0.02 -0.04 z M2.36 19.64 c0 -0.02 -0.02 -0.02 -0.02 -0.02 c-0.02 0 -0.02 0 -0.02 0.02 s0 0.04 0.02 0.04 c0 0 0.02 -0.02 0.02 -0.04 z M6.56 19.44 c-0.02 0.04 0.02 0.06 0.08 0.08 c0.1 0 0.28 0.02 0.28 -0.12 l1.24 0 l-0.04 0 c0 -0.02 0.42 0 1.06 -0.28 c0.5 -0.44 0.48 -0.42 0.62 -0.7 l-0.04 0 c0 -0.02 0.22 -0.16 0.22 -0.5 c0 -0.98 0.26 -1.2 0.26 -1.92 c0 -1.42 -0.24 -1.3 -0.24 -1.7 c0 -0.04 0.02 -0.08 0.02 -0.12 c0 -0.08 -0.02 -0.2 -0.16 -0.34 c-0.02 0 -0.02 0.02 -0.04 0.02 c-0.12 0 -0.04 -0.56 -0.38 -0.56 c-0.04 -0.04 -0.04 -0.16 -0.42 -0.36 l0 0.02 c-0.08 0 -0.68 -0.38 -1.16 -0.38 c-0.56 0 -1.28 -0.04 -2.48 -0.04 c-0.08 0.04 -0.1 0.08 -0.1 0.1 c0 0 0.02 0 0.02 0.02 l-0.02 0 l-0.02 -0.02 c-0.04 0 -0.1 0.18 -0.1 1.58 c0 0.44 0.02 1.62 0.02 2.9 c0 0.34 -0.02 0.74 -0.02 1.1 c0 0.54 0.04 1.02 0.26 1.18 l0.24 0 l0.04 0.08 l0.42 0 l0.04 -0.04 l0.4 0 z M10.52 17.84 c-0.02 0 -0.04 0.02 -0.04 0.04 c0 0 0.02 0.02 0.04 0.02 l0 -0.06 z M5.18 11.88 c0 0.08 0.12 0.14 0.12 0.16 l1.58 0 c0.1 -0.08 0.62 0.04 0.78 -0.2 c0.74 0 1 -0.2 1.14 -0.38 l0 0.02 c0.04 0 0.24 -0.3 0.36 -0.28 c-0.02 -0.02 -0.04 -0.06 -0.04 -0.08 c0 -0.14 0.38 -0.2 0.38 -0.7 c0.06 -1.22 0.16 0.42 0.16 -2.38 c0 -0.2 0 -0.34 -0.04 -0.54 c0 0 -0.04 -0.7 -0.32 -0.94 l0 0.02 c-0.02 0 -0.14 -0.44 -0.54 -0.56 c-0.04 0 -0.32 -0.34 -1.02 -0.34 l-2.48 0 c-0.12 0.04 -0.16 0.56 -0.16 0.72 c0.02 0.04 0.06 0.36 0.06 0.72 c0 0.04 0 0.08 -0.04 0.12 l0 1.42 c0 0.22 0.04 0.32 0.04 0.76 c0 0.3 0 0.62 -0.04 0.62 c0 0.66 0.06 1.28 0.06 1.84 z M2.42 10.86 c-0.04 0 -0.04 0.02 -0.06 0.02 c0 0 -0.02 0 0.06 -0.02 z M11.66 10.82 c0 -0.02 -0.02 -0.02 -0.02 -0.02 c-0.02 0 -0.02 0 -0.02 0.02 s0 0.04 0.02 0.04 c0 0 0.02 -0.02 0.02 -0.04 z M1.42 5.5 c0 0.06 0 0.06 0.04 0.1 c0.08 0 0.1 0 0.16 -0.04 l-0.1 -0.12 c-0.08 0 -0.12 0.02 -0.12 0.04 s0.02 0.02 0.02 0.02 z M0.46 5.220000000000001 c-0.14 0 -0.1 0.1 -0.1 0.22 c0.08 -0.1 0.1 -0.08 0.1 -0.22 z M1.38 5.4399999999999995 c0 -0.02 0 -0.02 -0.02 -0.02 l0 0.06 c0.02 0 0.02 -0.02 0.02 -0.04 z M0.8 5.300000000000001 c0 0.04 0.08 0.1 0.12 0.1 c0.02 0 0.12 0 0.16 -0.04 l-0.02 0 s0.02 0 0.02 -0.02 s-0.02 -0.06 -0.08 -0.06 c-0.04 0 -0.1 0.02 -0.2 0.02 z M1.62 5.279999999999999 c-0.06 0 -0.12 0.02 -0.12 0.08 c0.02 -0.02 0.1 -0.06 0.12 -0.08 z M1.3 5.279999999999999 c-0.06 0 -0.1 0 -0.1 0.04 c0 0.02 0 0.02 0.02 0.02 c0.06 0 0.08 -0.04 0.08 -0.06 z M7.96 5.279999999999999 l0 0.02 l0.06 -0.02 l-0.06 0 z M14.814 19.68 c0 -0.26 0.1 -0.14 0.22 -0.22 c0.14 0 0.38 0.02 0.64 0.02 c0.52 0 1.14 -0.06 1.2 -0.44 c0 -0.38 -0.06 -0.34 -0.06 -0.84 c0 -0.18 0.02 -1.7 0.02 -1.9 c0 -0.26 -0.02 -0.72 -0.02 -1.22 l0 -6.48 c0 -0.02 0.02 -0.2 0.02 -0.22 s-0.02 -0.06 -0.02 -0.28 l0 -2.08 c-0.04 -0.12 -0.04 -0.42 -0.16 -0.42 c-0.54 0 -1.4 0.06 -1.48 0.06 c-0.16 0 -0.38 -0.04 -0.38 -0.28 c0 -0.46 0.22 -0.44 0.28 -0.5 l1.16 0.02 s0.36 0.02 0.48 0.02 c0.06 0 0.18 -0.02 0.4 -0.02 l1.86 0 c0.04 0 0.14 -0.04 0.18 -0.04 s0.14 0.04 0.24 0.04 l3.14 -0.02 c0.18 0.02 0.66 0.16 1.2 0.16 c-0.02 0 -0.02 -0.02 -0.02 -0.02 c0.04 0 0.38 0.22 0.74 0.22 c0.06 0 0.78 0.02 0.78 0.3 c0 -0.02 0 -0.04 0.06 -0.04 c0.1 0 0.4 0.1 1.18 0.6 l0 0.04 c0.04 0.16 0.64 0.38 0.88 0.72 c0.02 0.24 0.7 0.72 0.7 0.88 c-0.02 0.02 -0.02 0.02 -0.02 0.04 l0 -0.02 c0.06 0 0.5 0.78 0.76 1.56 c-0.02 0 -0.02 0.02 -0.02 0.02 c0 0.12 0.46 0.74 0.46 1.68 c0.06 0.32 0.12 1.68 0.12 1.9 c0 0.14 -0.08 0.48 -0.08 0.74 c0 0 -0.16 0.76 -0.16 0.84 l-0.02 -0.02 c-0.06 0 0 0.74 -0.24 0.98 c-0.1 0 0.08 0.44 -0.32 0.84 c-0.06 0.04 -0.16 0.16 -0.16 0.42 c-0.72 1.24 -0.72 0.76 -0.98 1.3 c0 0.14 -0.16 0.12 -0.28 0.2 c-0.32 0.54 -0.88 0.76 -1.76 1.2 c-0.3 0 -0.84 0.38 -1.34 0.42 c0 0.02 -2.22 0.16 -3.24 0.16 c-0.24 0 -0.5 -0.02 -0.74 -0.02 c-0.12 0 -2.58 0.02 -3.5 0.04 c-0.08 0 -0.3 -0.02 -0.62 -0.02 c-0.34 0 -0.38 0.1 -0.76 0.1 c-0.18 -0.02 -0.34 -0.12 -0.34 -0.42 z M15.034 19.9 c0.1 0.04 0.16 0.04 0.2 0.04 c0.12 0 0.1 0 0.12 -0.04 l-0.32 0 z M15.914000000000001 19.94 c0 -0.02 -0.02 -0.02 -0.02 -0.02 c-0.02 0 -0.02 0 -0.02 0.02 s0 0.04 0.02 0.04 c0 0 0.02 -0.02 0.02 -0.04 z M16.174 19.9 c-0.02 0 -0.04 0.02 -0.04 0.04 s0.02 0.04 0.04 0.04 s0.02 -0.02 0.02 -0.04 s0 -0.04 -0.02 -0.04 z M21.394000000000002 19.86 c-0.02 0 -0.04 0.02 -0.04 0.04 s0.02 0.04 0.04 0.04 s0.02 -0.02 0.02 -0.04 s0 -0.04 -0.02 -0.04 z M21.714 19.9 c0 -0.02 -0.02 -0.02 -0.02 -0.02 c-0.02 0 -0.02 0 -0.02 0.02 s0 0.04 0.02 0.04 c0 0 0.02 -0.02 0.02 -0.04 z M15.394 19.62 c-0.06 0.02 -0.06 0.08 -0.06 0.12 c0.04 -0.02 0.06 -0.08 0.06 -0.12 z M15.014000000000001 19.58 c0 0.06 0.02 0.06 0.1 0.1 l-0.02 0.02 c0.04 0 0.16 -0.08 0.14 -0.14 c-0.06 0 -0.22 0 -0.22 0.02 l0 0 z M15.334000000000001 19.58 c-0.02 0 -0.02 0.02 -0.02 0.04 s0 0.02 0.02 0.02 l0 -0.06 z M19.774 18.64 c0.06 0.46 0.04 0.78 0.26 0.78 l1.36 0 c0.04 0 0.08 -0.02 0.12 -0.02 c0 0 0.14 0.02 0.26 0.02 c0.3 0 0.74 -0.02 0.9 -0.1 c-0.16 -0.12 0.18 0.16 0.6 -0.16 c0.94 -0.06 0.58 -0.2 0.94 -0.38 c0.06 0 0.48 -0.24 0.56 -0.42 c0 -0.16 0.32 -0.24 0.34 -0.32 c-0.02 -0.02 -0.04 -0.04 -0.04 -0.06 c0 -0.12 0.34 -0.2 0.34 -0.52 c-0.02 -0.02 -0.02 -0.02 -0.02 -0.04 c0 -0.08 0.2 -0.14 0.2 -0.5 l0 0.02 c0.06 0 0.46 -1.64 0.46 -2.48 c0 -0.02 -0.02 -0.32 -0.02 -0.64 s0.02 -0.64 0.1 -0.7 c0 -0.04 -0.04 -0.24 -0.04 -0.28 c0 0 0.04 -0.4 0.04 -0.44 c0 -5.4 -1.38 -5.74 -1.92 -6.3 c-0.4 0 -0.48 -0.36 -1.06 -0.36 c-1.08 -0.06 -1.6 -0.14 -3.14 -0.14 c-0.3 0.76 -0.04 1.54 -0.26 1.96 c0 0.04 0.06 0.14 0.06 0.62 c0 0.24 0 0.22 -0.04 0.3 l0 1.06 c0 0.02 0.04 0.16 0.04 0.2 c-0.02 0.02 -0.04 0.08 -0.04 0.08 c0 0.04 0.04 0.28 0.04 0.44 l-0.04 0.04 c0 0.02 0.04 0.2 0.04 0.26 l0 2.32 c0 0.04 0.02 0.2 0.02 0.24 c0 0.32 -0.06 1.24 -0.06 1.92 c0 0.16 0.04 0.3 0.04 0.36 c0 0.2 -0.04 0.44 -0.04 0.64 c0 0.26 0.02 0.78 0.06 0.78 c0 0.02 -0.02 0.34 -0.02 0.38 c0 0.02 -0.02 0.02 -0.02 0.04 s0.04 0.08 0.04 0.2 c0 0.04 0 0.24 -0.06 1.2 z M16.994 18.56 c-0.02 0 -0.02 0 -0.02 0.02 s0 0.04 0.02 0.04 s0.02 -0.02 0.02 -0.04 s0 -0.02 -0.02 -0.02 z M26.454 15.440000000000001 l0 0.02 l0.02 0 z M19.114 9.7 l-0.04 0.04 l0.04 0 l0 -0.04 z M16.994 8.06 c-0.04 0.08 -0.02 0.24 -0.02 0.32 z M17.074 7.960000000000001 c-0.02 0 -0.04 0.02 -0.04 0.04 c0 0 0.02 0.02 0.04 0.02 s0.02 -0.02 0.02 -0.02 c0 -0.02 0 -0.04 -0.02 -0.04 z M26.174 6.76 l-0.02 -0.02 c-0.02 0 -0.02 0.02 -0.02 0.02 c0 0.02 0 0.04 0.02 0.04 c0 0 0.02 -0.02 0.02 -0.04 z M26.314 6.76 c0 0 -0.02 -0.02 -0.04 -0.02 l-0.02 0.02 c0 0.02 0.02 0.04 0.02 0.04 c0.02 0 0.04 -0.02 0.04 -0.04 z M23.234 5.279999999999999 c0 0.08 0.04 0.1 0.06 0.1 s0.02 -0.02 0.02 -0.02 c0 -0.06 -0.08 -0.12 -0.16 -0.12 c-0.04 0.02 -0.16 -0.02 -0.2 0.04 l0.28 0 z M16.014 5.24 c-0.02 0 -0.04 0.02 -0.04 0.04 s0.02 0.04 0.04 0.04 s0.02 -0.02 0.02 -0.04 s0 -0.04 -0.02 -0.04 z M20.174 5.24 c-0.06 0 -0.06 0.02 -0.08 0.04 l0.08 -0.04 l0 0 z M22.354 5.24 l-0.22 0 l0 0.04 c0.1 0 0.28 0.02 0.32 -0.04 l-0.1 0 z M22.614 5.24 c0 -0.02 -0.02 -0.02 -0.02 -0.02 c-0.02 0 -0.02 0 -0.02 0.02 l0.04 0 z M32.408 22 c-0.28 -0.06 -0.5 -0.34 -0.86 -0.34 l0.08 -0.04 c-0.08 -0.16 -0.32 -0.3 -0.44 -0.42 c0 -0.32 -0.5 0.04 -0.5 -1.28 c0 -0.56 0.24 -0.78 0.42 -1.06 l0 0.02 l0 0 c0 -0.06 0.5 -0.58 1.1 -0.58 c0.38 0 0.4 0.16 0.66 0.16 l0 0.04 c0.5 0.08 0.7 0.6 0.86 1.06 l0 0.56 c-0.04 0 -0.08 0.18 -0.1 0.2 c0.02 0.02 0.02 0.04 0.02 0.06 c0 0.12 -0.3 0.28 -0.3 0.62 c0 0.3 0.16 0.18 0.34 0.3 c0.8 0 0.58 -0.42 1.06 -0.46 l-0.04 0 c0 -0.06 0.28 -0.3 0.32 -0.38 c0 -1.34 0.18 0.3 0.18 -1.9 c0 -0.6 -0.06 -2.06 -0.06 -2.44 c0 -0.84 0.04 -0.86 0.04 -1.1 c0 -0.1 -0.04 -0.28 -0.04 -0.3 s0.02 -0.04 0.04 -0.08 l0 -0.4 c0 -0.06 0.12 -0.14 0.12 -0.32 l-0.04 0.08 l-0.04 0 c-0.04 -0.56 -0.1 -2 -0.1 -2.1 c0 -0.02 0.06 -0.04 0.06 -0.36 l0 0.02 c0 -0.02 -0.04 -0.2 -0.04 -0.26 l0 -4.52 c0 -0.04 0.04 -0.26 0.04 -0.34 c0 -0.4 0 -0.72 -0.24 -0.86 l-1.88 0 c-0.02 -0.04 -0.18 -0.04 -0.18 -0.28 c0 -0.46 0.16 -0.3 0.3 -0.42 l5.34 0 c0.6 0 0.94 -0.04 0.98 -0.04 c0.2 0 0.58 0.04 0.58 0.34 c-0.1 0 0.08 0.4 -0.42 0.4 c-0.12 0 -0.34 -0.04 -0.5 -0.04 c-0.46 0 -0.9 0.04 -1.04 0.1 c0 -0.02 0 -0.02 -0.02 -0.02 s-0.06 0.5 -0.06 1.54 c-0.06 0 -0.12 0 -0.16 0.02 c0.2 1.02 0.22 1.96 0.22 2.64 c0 0.74 -0.02 1.02 -0.02 1.1 c0 0.12 0.02 0.26 0.02 0.38 c0 0.16 -0.02 0.36 -0.02 0.38 c0 0.08 0.02 0.18 0.02 0.28 c-0.02 0.04 -0.02 0.06 -0.02 0.12 c0 0.12 0.02 0.36 0.02 0.66 c0 0.06 0 0.38 -0.02 0.44 c0 0.04 0.02 0.2 0.02 0.26 c0 0.02 -0.04 0.24 -0.04 0.66 c0 0.08 0.02 0.16 0.04 0.18 c-0.02 0 -0.02 0.46 -0.02 0.5 c0 0.24 0.02 0.42 0.02 0.66 c0 0.02 -0.02 0.36 -0.02 0.38 c0 0.04 0.02 0.22 0.02 0.26 s-0.02 0.16 -0.02 0.36 c0 0 0 0.06 0.02 0.12 l0 1 c0 0.04 -0.02 0.12 -0.02 0.16 c0 0 0 0.1 0.02 0.28 c0 0.22 -0.14 0.14 -0.14 0.6 c-0.08 0.84 -0.02 0.32 -0.38 1.12 c-0.36 0.34 0.1 -0.06 -0.56 0.74 c-0.68 0.38 0.16 0.02 -0.9 0.76 c-0.02 0.1 -0.54 0.34 -0.56 0.36 c0.02 0.04 0.04 0.06 0.08 0.08 c-0.58 0 -0.62 0.26 -0.74 0.26 l0.02 0 c0 0.02 -0.2 0.12 -0.64 0.12 c-1.12 0 -1.58 -0.04 -1.88 -0.04 z M35.628 14.76 c0 -0.02 -0.02 -0.02 -0.02 -0.02 c-0.02 0 -0.02 0 -0.02 0.02 s0 0.02 0.02 0.02 c0 0 0.02 0 0.02 -0.02 z M35.308 14.34 c-0.02 0 -0.04 0.02 -0.04 0.02 c0 0.02 0.02 0.04 0.04 0.04 s0.02 -0.02 0.02 -0.04 c0 0 0 -0.02 -0.02 -0.02 z M35.268 13.6 c0 0.08 0.04 0.2 0.1 0.2 c0 -0.08 -0.02 -0.22 -0.06 -0.22 z M35.308 13.1 l0 0.04 l0.04 -0.04 l-0.04 0 z M35.308 11.48 c-0.02 0 -0.04 0 -0.04 0.02 s0.02 0.04 0.04 0.04 s0.02 -0.02 0.02 -0.04 s0 -0.02 -0.02 -0.02 z M33.308 5.42 c0 0.1 0.02 0.1 0.06 0.1 c0.06 0 0.18 -0.02 0.26 -0.02 c-0.02 -0.1 -0.02 -0.16 -0.06 -0.2 c-0.04 0.02 -0.06 0.06 -0.06 0.08 c0 0 -0.08 -0.04 -0.1 -0.04 c-0.1 0.02 -0.1 -0.02 -0.1 0.08 z M33.888000000000005 5.42 c0 0.02 -0.02 0.02 -0.02 0.04 c0 0.04 0.08 0.06 0.1 0.06 l0.2 0 c0 -0.02 0 -0.16 -0.02 -0.16 l-0.22 0 c-0.04 0 -0.06 0.02 -0.06 0.04 z M34.828 5.42 c-0.02 0 -0.04 0.02 -0.04 0.04 s0.02 0.04 0.04 0.04 s0.02 -0.02 0.02 -0.04 s0 -0.04 -0.02 -0.04 z M34.908 5.359999999999999 l-0.02 0.1 l0.06 -0.08 z M39.768 5.359999999999999 l-0.02 0 c0 0.02 0 0.02 0.02 0.02 s0.02 0 0.02 -0.02 l-0.02 0 z M39.008 5.34 l-0.02 0.02 l0.02 0.02 l0.02 -0.02 z M33.848 5.26 c0 0.06 0.02 0.06 0.04 0.08 c0.02 -0.02 0.1 -0.04 0.12 -0.08 l-0.04 -0.08 c-0.04 0.02 -0.1 0.04 -0.12 0.08 z M39.848 5.26 l0 0.08 l0.06 -0.08 l-0.06 0 z M33.108000000000004 5.220000000000001 c-0.02 0 -0.04 0.02 -0.04 0.04 s0.02 0.04 0.04 0.04 s0.02 -0.02 0.02 -0.04 s0 -0.04 -0.02 -0.04 z M36.048 5.18 c0 0.02 -0.02 0.02 -0.02 0.04 s0.02 0.02 0.06 0.04 l0 -0.08 l-0.04 0 z M35.208000000000006 5.18 l0 0.04 l0.06 0 l0 -0.04 l-0.06 0 z M38.548 5.1 c-0.02 0 -0.02 0.02 -0.02 0.06 c0 0.02 0 0.02 0.02 0.02 s0.02 0 0.02 -0.02 c0 -0.04 0 -0.06 -0.02 -0.06 z M33.468 5.1 c0 0.02 -0.02 0.02 -0.02 0.04 s0.02 0.02 0.06 0.04 l0.02 -0.08 c0 -0.02 0 -0.04 -0.02 -0.08 c-0.04 0.02 -0.06 0.04 -0.06 0.06 z M38.268 5.1 c-0.02 0 -0.02 0.02 -0.02 0.04 s0 0.04 0.02 0.04 s0.02 -0.02 0.02 -0.04 s0 -0.04 -0.02 -0.04 z M39.648 5 c0.04 0.1 0.06 0.14 0.1 0.14 c0.02 0 0.02 -0.02 0.02 -0.04 c0 -0.1 -0.08 -0.1 -0.12 -0.1 z M34.008 5.0600000000000005 c-0.02 0 -0.04 0.02 -0.04 0.04 s0.02 0.04 0.04 0.04 s0.02 -0.02 0.02 -0.04 s0 -0.04 -0.02 -0.04 z M34.788000000000004 5.02 c-0.02 0 -0.04 0.02 -0.04 0.04 s0.02 0.04 0.04 0.04 s0.02 -0.02 0.02 -0.04 s0 -0.04 -0.02 -0.04 z"/></g><g id="SvgjsG7618" featureKey="duLK5n-0" transform="matrix(0.7074197391221,0,0,0.7074197391221,32.77362568854079,76.33556587278417)" fill="#000"><path d="M4.42 20.2 c-0.44 0 -0.84 -0.26 -1.28 -0.3 c-0.12 0 -0.32 -0.32 -0.6 -0.32 c-0.14 0 -0.34 -0.42 -0.56 -0.42 c-0.36 -0.38 -0.24 -0.24 -0.26 -0.3 l0 0.02 c0 -0.02 -0.04 -0.08 -0.52 -0.56 c0 -0.16 -0.22 -0.24 -0.42 -0.74 c0 -0.02 0.02 -0.02 0.02 -0.04 c0 -0.08 -0.48 -0.86 -0.48 -1.98 c0 -0.72 0.22 -1.1 0.22 -1.66 c0.14 -0.16 0.16 -0.22 0.16 -0.26 c0 -0.02 -0.04 -0.02 -0.04 -0.06 c0 -0.06 0.06 -0.2 0.38 -0.62 c0 -0.26 0.24 -0.22 0.32 -0.46 l0 0.02 c-0.1 -0.26 1.24 -1.08 1.38 -1.28 l0.02 0.02 c0.02 0 0.5 -0.5 3 -0.5 c0.68 0 1.14 0.4 1.3 0.42 c0.04 0 0.06 0 0.1 -0.02 c-0.02 0 0.74 0.36 0.8 0.62 c0 0.08 0.38 0.38 0.38 0.52 c0 0.06 0.16 0.54 0.16 0.74 c0 0.64 -0.34 0.66 -0.34 0.94 c0 0 -0.12 0.32 -0.58 0.38 c0 0.06 -0.56 0.06 -0.56 0.1 c-0.02 0 -0.02 0.02 -0.02 0.02 c-0.04 0 -0.54 -0.38 -0.78 -0.38 l0.02 0.02 c-0.1 0 -0.4 -0.52 -0.4 -0.9 c0 -0.5 0.16 -0.48 0.22 -0.82 c0.48 -0.26 0.16 -0.22 0.4 -0.54 c-0.02 0.02 -0.02 0.02 -0.04 0.02 c0 -0.04 0.02 -0.08 0.02 -0.16 c0 -0.14 -0.08 -0.28 -0.44 -0.28 c0.04 0 -0.48 -0.16 -0.52 -0.28 c-1.82 0 -1.4 0.36 -2 0.74 c-0.28 -0.02 -0.42 2.74 -0.42 3.52 c0 2.7 0.34 3.54 0.52 3.54 c0.04 0 0.02 0 0.02 -0.02 c0 0 0.3 0.6 0.94 0.6 c0.84 0 1.18 -0.02 1.46 -0.02 c0 0 0.68 -0.08 1.02 -0.56 c0.26 0 0.9 -0.8 0.9 -1.14 c0.38 -0.86 0.34 -0.9 0.66 -0.9 c0 0 0 0.02 0.02 0.02 c0 0 0.04 -0.02 0.06 -0.02 c0.08 0 0.16 0.04 0.16 0.22 c0 0.86 -0.32 0.76 -0.44 1.22 l0 -0.02 c-0.04 0 -0.28 0.64 -0.54 0.76 c-0.16 0.16 -0.3 0.12 -0.94 0.76 c-0.48 0.12 -0.62 0.14 -0.68 0.2 l-0.34 0 c-0.02 0 0.02 -0.08 -0.04 -0.08 c-0.02 0 -0.16 0 -0.16 0.02 s0.02 0.04 0.08 0.06 c-0.1 0.14 -0.18 0.18 -0.28 0.2 l0 -0.06 l-0.28 0 l-0.04 0.06 l-0.06 -0.04 l0.04 -0.02 c-0.16 0 -0.18 0 -0.2 0.02 c-0.2 0 -0.16 0 -0.24 -0.02 c0 0 -0.02 0 -0.04 0.02 z M4.38 20.04 c0.06 0 0.12 0.04 0.14 0.02 c0 -0.02 -0.02 -0.04 -0.02 -0.06 c-0.08 0 -0.08 0 -0.12 0.04 z M6.04 19.98 c-0.02 0 -0.04 0.02 -0.04 0.04 c0 0 0.02 0.02 0.04 0.02 l0.02 -0.02 c0 -0.02 -0.02 -0.04 -0.02 -0.04 z M4.66 19.74 l0 0.12 l0.02 -0.08 z M6.78 19.7 c-0.1 0 -0.12 0.04 -0.12 0.1 c0 0.02 -0.02 0.08 0.02 0.08 c0.02 0 0.1 -0.08 0.1 -0.18 z M6.22 19.62 l0 0.04 s0.1 0.04 0.14 0.04 l0.06 -0.02 c0 -0.08 -0.08 -0.06 -0.2 -0.06 z M5.94 19.66 c-0.02 0 -0.04 0.02 -0.04 0.02 s0.02 0.02 0.04 0.02 l0 -0.04 z M6.84 19.62 c0.02 0.02 0.06 0.04 0.06 0.04 l0 0 c0.04 0 0.1 -0.04 0.12 -0.08 c-0.16 0 -0.18 -0.02 -0.18 0.04 z M6.66 19.58 l0 0.04 l0 -0.06 l0 0.02 z M6.62 19.52 c-0.02 0 -0.04 0 -0.04 0.02 l0.04 0 l0.02 0 c0 -0.02 0 -0.02 -0.02 -0.02 z M6.9 19.32 c-0.02 0 -0.04 0.02 -0.04 0.04 c0 0 0.02 0.02 0.04 0.02 s0.02 -0.02 0.02 -0.02 c0 -0.02 0 -0.04 -0.02 -0.04 z M7.44 18.92 c0.06 0.04 0.1 0.04 0.14 0.04 l-0.06 -0.12 c-0.06 0 -0.08 0.02 -0.08 0.08 z M7.88 18.46 c0 0.02 0.04 0.02 0.04 0.02 z M1.24 17.66 c-0.02 0 -0.04 0.02 -0.04 0.04 l0.04 0 l0.02 0 c0 -0.02 0 -0.04 -0.02 -0.04 z M0.94 17.4 l0 0.02 l0.04 -0.02 l-0.04 0 z M8.58 17.259999999999998 c0 0.04 0.02 0.12 0.04 0.12 s0.02 -0.02 0.02 -0.04 s-0.02 -0.04 -0.06 -0.1 l0 0.02 z M8.34 17.259999999999998 l0 0.08 c0.02 -0.02 0.04 -0.04 0.04 -0.08 l-0.04 0 z M8.46 17 l0 0.04 l0.12 0 l0 -0.04 l-0.12 0 z M0.62 16.4 c-0.02 0 -0.04 0.02 -0.04 0.04 c0 0 0.02 0.02 0.04 0.02 s0.02 -0.02 0.02 -0.02 c0 -0.02 0 -0.04 -0.02 -0.04 z M0.46 15.719999999999999 l0 0.02 l0.04 0 z M0.56 14.96 c-0.02 0.02 -0.04 0.02 -0.04 0.02 c0 0.02 0.02 0.04 0.04 0.04 c0 0 0 -0.02 0.02 -0.04 z M0.56 14.82 l-0.02 0 c0 0.02 0 0.02 0.02 0.02 c0 0 0.02 0 0.02 -0.02 l-0.02 0 z M7.44 14.34 c-0.02 0 -0.02 0.02 -0.02 0.04 c0 0 0 0.02 0.02 0.02 s0.02 -0.02 0.02 -0.02 c0 -0.02 0 -0.04 -0.02 -0.04 z M7.16 14.24 c-0.02 0 -0.04 0.02 -0.04 0.04 c0 0 0.02 0.02 0.04 0.02 s0.02 -0.02 0.02 -0.02 c0 -0.02 0 -0.04 -0.02 -0.04 z M6 13.379999999999999 c-0.02 0 -0.04 0 -0.04 0.02 s0.02 0.04 0.04 0.04 s0.02 -0.02 0.02 -0.04 s0 -0.02 -0.02 -0.02 z M8.34 13.34 c-0.08 0 -0.1 0.04 -0.12 0.1 c0.06 0.02 0.12 -0.06 0.12 -0.1 z M6 12.96 c-0.02 0 -0.04 0.02 -0.04 0.04 c0 0 0.02 0.02 0.04 0.02 s0.02 -0.02 0.02 -0.02 c0 -0.02 0 -0.04 -0.02 -0.04 z M8.26 12.64 c-0.1 0 -0.08 0.04 -0.08 0.08 c0.06 -0.02 0.1 -0.06 0.08 -0.08 z M7.36 11.5 c-0.02 0 -0.04 0.02 -0.04 0.04 s0.02 0.04 0.04 0.04 s0.02 -0.02 0.02 -0.04 s0 -0.04 -0.02 -0.04 z M6.84 11.46 c-0.02 0 -0.02 0.02 -0.02 0.02 c0 0.02 0 0.02 0.02 0.02 l0 -0.04 z M3.04 11.4 l-0.06 0.04 l0.16 0 s-0.08 -0.04 -0.1 -0.04 z M6.9 11.4 c-0.02 0 -0.04 0.02 -0.04 0.04 c0 0 0.02 0.02 0.04 0.02 s0.02 -0.02 0.02 -0.02 c0 -0.02 0 -0.04 -0.02 -0.04 z M3.88 11.12 c0.08 0.08 0.14 0.16 0.2 0.22 c0 -0.14 0.1 -0.22 0.24 -0.22 l-0.06 -0.08 c-0.24 0 -0.3 0.06 -0.38 0.08 z M6.66 11.24 l0 0.04 c0.02 0 0.02 0 0.02 -0.02 c0 0 0 -0.02 -0.02 -0.02 z M5.32 10.88 c-0.14 0 -0.12 0.12 -0.12 0.16 l0.16 0 c0 -0.02 -0.02 -0.14 -0.04 -0.16 z M23.465 19.76 c-0.02 0 0 -0.02 0.04 -0.12 c-0.12 -0.08 -0.14 -0.26 -0.16 -0.26 c-0.12 0 -0.16 0.38 -0.14 0.42 c-0.1 0 -0.44 -0.18 -0.44 -0.22 c0 -0.02 0.02 0.06 -0.06 0.06 s-0.3 -0.12 -0.92 -0.74 c-0.1 -0.12 -0.24 -0.24 -0.24 -0.28 c0.02 -0.06 -0.36 -0.28 -0.36 -0.5 c-0.24 -0.12 -0.32 -0.62 -0.54 -0.8 l0.02 0 s-0.42 -0.72 -0.42 -1.52 c0 -0.08 0.04 -0.54 0.04 -0.64 c0 -0.9 0.56 -1.34 0.56 -1.68 c0 -0.22 0.56 -0.58 0.78 -1.14 c0 -0.08 0.82 -0.74 0.86 -0.78 c0.3 0 0.46 -0.46 0.88 -0.46 c0.16 0.04 0.88 -0.32 1.28 -0.32 l0.94 0 c0.14 0 0.34 0.1 0.58 0.1 c-0.02 0 -0.02 -0.02 -0.02 -0.02 c0.04 0 0.3 0.16 0.66 0.22 c0 -0.02 0.02 -0.02 0.04 -0.02 c0.12 0 0.36 0.24 0.46 0.26 l0 0 s0.12 0.1 0.82 0.62 l-0.02 0.02 s0.18 -0.02 0.96 0.94 c0.18 0.38 0.38 0.62 0.52 0.98 c0.04 0.04 0.34 0.62 0.34 1.16 c0 1.5 -0.5 1.82 -0.54 2.54 c0.02 0.14 -0.28 0.22 -0.32 0.52 c0 0.1 -0.32 0.26 -0.74 0.86 l0 0 c-0.08 0 -0.76 0.68 -0.9 0.68 c0 -0.02 -0.02 -0.04 -0.04 -0.04 c-0.08 0 -0.34 0.36 -0.74 0.36 l-0.08 -0.04 c-0.16 0 -0.12 0.2 -0.36 0.2 c-0.26 0 -0.22 -0.06 -0.36 -0.06 c0 0.2 -0.18 0.04 -0.26 0.2 l-1.02 0 c-0.34 -0.12 -1.12 0 -1.1 -0.5 z M25.384999999999998 20.16 l0.04 0.02 l0.04 -0.02 l-0.04 -0.04 z M26.325 20 c-0.04 0 -0.06 0.02 -0.1 0.02 l0.02 0.02 c0.02 0 0.04 -0.02 0.12 -0.04 l-0.04 0 z M27.025 19.68 c-0.02 0 -0.06 0.04 -0.08 0.06 l0.08 0 l0 -0.06 z M24.425 19.56 c0.2 0 0.3 0.12 0.66 0.14 c0 -0.06 0.02 -0.02 0.42 -0.1 c0.04 0 0.22 0.04 0.24 0.04 c0.16 0 0.04 -0.12 0.38 -0.12 c0.46 -0.32 0.38 -0.14 0.82 -1.02 l0 0.02 c0.02 0 0.18 -1.6 0.18 -1.86 c0 -0.14 -0.1 -0.22 -0.1 -0.34 l0.04 -0.12 c-0.02 -0.08 -0.06 -0.2 -0.06 -0.26 c0 -0.36 0.16 -0.28 0.16 -0.7 c0 -1.62 -0.12 -2.12 -0.28 -2.9 c0 -0.84 -1.58 -0.94 -1.7 -1.02 c-0.68 0.08 -1.12 0.02 -1.56 0.48 c0 0 -0.32 0.24 -0.32 0.62 c0 0.64 -0.24 0.68 -0.24 1.2 s-0.02 1.38 -0.02 1.52 c0 3.04 0.12 2.84 0.32 3.48 c0.02 0 0.2 0.94 1.04 0.94 l0.02 0 z M26.265 19.64 c-0.02 0 -0.04 0.02 -0.04 0.04 s0.02 0.04 0.04 0.04 c0 0 0.02 -0.02 0.02 -0.04 s-0.02 -0.04 -0.02 -0.04 z M26.765 19.56 c0 0 -0.02 0.02 -0.02 0.04 s0.02 0.04 0.02 0.04 c0.02 0 0.02 -0.02 0.02 -0.04 s0 -0.04 -0.02 -0.04 z M20.825 17.36 c0 -0.02 -0.02 -0.02 -0.02 -0.02 c-0.02 0 -0.02 0 -0.02 0.02 s0 0.04 0.02 0.04 c0 0 0.02 -0.02 0.02 -0.04 z M20.724999999999998 15.42 c-0.02 0 -0.04 0.02 -0.04 0.04 c0 0 0.02 0.02 0.04 0.02 s0.02 -0.02 0.02 -0.02 c0 -0.02 0 -0.04 -0.02 -0.04 z M20.485 15.26 c-0.02 0 -0.02 0.02 -0.02 0.04 c0 0 0 0.02 0.02 0.02 s0.02 -0.02 0.02 -0.02 c0 -0.02 0 -0.04 -0.02 -0.04 z M27.185 11.6 c-0.08 0 -0.08 0.04 -0.12 0.04 c0.06 0 0.12 0.02 0.12 -0.04 z M26.405 11.24 c-0.02 0.04 0.02 0.04 0.08 0.06 c0.02 0 0.06 0 0.08 -0.02 c-0.06 -0.02 -0.12 -0.04 -0.14 -0.04 l-0.02 0 z M23.665 11.2 l0.02 -0.02 z M24.445 10.98 c0.04 -0.02 -0.12 0.02 -0.16 0.04 l0 0.06 c0.1 0 0.16 0.02 0.16 -0.1 z M24.605 11.02 l0 0.06 c0.02 0 0.02 -0.02 0.02 -0.02 c0 -0.02 0 -0.04 -0.02 -0.04 z M41.550000000000004 19.68 c0 0 -0.02 -0.02 -0.02 -0.06 c0 -0.08 0.1 -0.24 0.72 -0.24 c0.04 0 0.2 0.04 0.3 0.04 c0.48 0 0.54 -0.2 0.54 -0.82 c0 -0.3 -0.04 -0.36 -0.04 -0.44 l0.04 -1.78 c0 -0.44 -0.02 -1.14 0.04 -1.18 c0 -0.26 -0.08 -0.58 -0.08 -0.74 c0 -0.4 0.04 -0.52 0.04 -0.7 l0 -1.72 c0 -0.26 -0.26 -0.36 -0.48 -0.36 c-0.06 0.06 -0.44 0.04 -0.62 0.1 c-0.44 0 -0.48 0.02 -0.62 -0.18 c0.02 -0.32 0 -0.5 0.38 -0.5 c0.08 0 0.7 0.04 0.76 0.04 c0.96 0 2.28 0 2.66 -0.12 c0.32 0.04 0.36 0.32 0.36 0.58 l0 0.26 s0 0.12 0.04 0.12 l0 0.52 c0.02 0.02 0.02 0.06 0.2 0.06 c0.06 0 0.1 -0.02 0.1 -0.06 c0 0.02 0.02 0.02 0.02 0.02 c0.1 0 0.18 -0.58 0.52 -0.76 c-0.02 0 -0.02 0 -0.02 -0.02 c0 -0.04 0.32 -0.08 0.42 -0.3 c0 -0.02 0.38 -0.18 0.44 -0.28 c0.36 -0.16 0.96 -0.18 1.34 -0.24 c0.02 0 0.52 0 0.64 0.06 c0.18 0 1.16 0.18 1.16 0.3 c0.12 0.12 0.9 0.32 0.9 0.82 c0.08 0.52 0.3 -0.12 0.3 1.5 c0 0.02 -0.04 0.38 -0.04 0.4 c0 1.96 0.04 3.28 0.04 5.1 c0 0.24 0.28 0.28 0.3 0.28 c0.12 0 0.18 -0.02 0.3 -0.02 c0.38 0 0.82 -0.02 0.82 0.2 c0 0.44 -0.06 0.46 -0.3 0.46 c-0.2 0 -0.46 -0.02 -0.6 -0.02 l-3.22 0 c-0.5 0 -0.8 0.06 -0.82 0.06 c-0.32 0 -0.54 -0.08 -0.54 -0.44 c0 -0.42 1.48 0 1.48 -0.42 l0 0.02 s0.1 -1.22 0.1 -1.7 c0 0 -0.02 -0.56 -0.02 -0.7 l0 -3.92 c-0.04 -0.02 -0.08 -0.26 -0.08 -0.36 c0 -0.02 -0.14 -0.6 -0.64 -0.78 l-0.74 0 c-0.1 0.04 -0.24 0.1 -0.46 0.16 c-0.2 0 -0.34 0.36 -0.58 0.46 c-0.12 0.14 -0.32 0.18 -0.56 0.92 c0.12 0 -0.16 0.02 -0.16 0.34 c0 0.2 -0.02 0.26 -0.28 1.1 l0 3.1 c0 0.12 -0.02 0.26 -0.02 0.38 c0 0.04 0.02 0.62 0.02 0.9 c-0.02 0 -0.04 0.02 -0.04 0.02 c0 0.08 0.32 0.28 0.32 0.26 c0.24 0 0.5 -0.02 0.76 -0.02 c0.14 0 0.38 0.06 0.38 0.18 l0 0.36 c-0.7 0.14 -1.84 0.14 -2.3 0.14 c-0.18 0 -0.36 -0.04 -0.76 -0.04 c-0.26 0 -0.64 0.04 -0.72 0.04 c-0.02 0 -0.58 -0.04 -0.64 -0.04 c0 -0.02 0.04 -0.12 0.08 -0.16 c0 0 0 -0.02 -0.04 -0.06 c-0.1 0.04 -0.16 0.16 -0.22 0.16 l0.06 0.06 c0 0.08 -0.16 0.08 -0.2 0.08 c-0.1 0 -0.72 0.14 -0.72 -0.42 z M46.050000000000004 19.9 c-0.02 0 -0.02 0.02 -0.02 0.02 c0 0.02 0 0.04 0.02 0.04 l0 -0.06 z M48.39 19.76 c0.04 0.08 0.04 0.12 0.04 0.2 c0.06 -0.08 0.1 -0.1 0.14 -0.2 c0 -0.02 -0.08 -0.08 -0.1 -0.08 z M49.050000000000004 19.92 c-0.02 0 -0.14 0 -0.12 0 c0 0.02 0.02 0.04 0.06 0.04 c0.02 0 0.06 -0.02 0.06 -0.04 z M52.61 19.9 l0 0.02 l0.04 -0.02 l-0.04 0 z M46.03 19.86 c-0.02 0 -0.04 0.02 -0.04 0.04 s0.02 0.02 0.04 0.02 c0 0 0.02 0 0.02 -0.02 s-0.02 -0.04 -0.02 -0.04 z M52.290000000000006 19.9 c0 -0.02 -0.04 -0.02 -0.08 -0.02 s-0.08 0 -0.08 0.02 c0.02 0.02 0.04 0.02 0.08 0.02 c0.02 0 0.06 0 0.08 -0.02 z M52.85 19.52 c-0.16 0 -0.16 0.24 -0.16 0.32 c0.04 -0.08 0.08 -0.12 0.2 -0.24 c0 -0.04 -0.02 -0.06 -0.04 -0.08 z M46.690000000000005 19.72 c-0.06 0.04 0.08 0.04 0.26 0.04 c-0.18 -0.02 -0.12 -0.12 -0.18 -0.16 c-0.04 0.04 -0.1 0.08 -0.1 0.1 s0 0.02 0.02 0.02 z M51.230000000000004 19.74 c-0.02 0 -0.02 0 -0.02 0.02 s0 0.04 0.02 0.04 s0.02 -0.02 0.02 -0.04 s0 -0.02 -0.02 -0.02 z M41.71 19.68 l0 0.06 c0.02 0 0.02 -0.02 0.02 -0.06 l-0.02 0 z M42.89 19.68 l0 0.04 l0.08 0 l0 -0.04 l-0.08 0 z M49.17 19.68 l0 0.04 l0.04 0 z M52.230000000000004 19.6 l0.1 0.04 c0.04 0 0.06 0 0.1 -0.04 l-0.04 -0.04 c-0.04 0 -0.06 0 -0.16 0.04 z M51.95 19.6 c0 -0.02 -0.02 -0.02 -0.02 -0.02 c-0.02 0 -0.02 0 -0.02 0.02 s0 0.04 0.02 0.04 c0 0 0.02 -0.02 0.02 -0.04 z M43.21 18.64 c-0.02 0 -0.04 0.02 -0.04 0.02 c0 0.02 0.02 0.04 0.04 0.04 s0.02 -0.02 0.02 -0.04 c0 0 0 -0.02 -0.02 -0.02 z M43.470000000000006 15.940000000000001 l0.04 0.02 c0.02 0 0.02 -0.02 0.02 -0.06 c-0.02 0 -0.04 0.02 -0.06 0.04 z M43.21 15.16 c-0.02 0 -0.04 0.02 -0.04 0.02 c0 0.02 0.02 0.02 0.04 0.02 s0.02 0 0.02 -0.02 c0 0 0 -0.02 -0.02 -0.02 z M43.510000000000005 14.3 c-0.02 0 -0.04 0.02 -0.04 0.04 c0 0 0.02 0.02 0.04 0.02 s0.02 -0.02 0.02 -0.02 c0 -0.02 0 -0.04 -0.02 -0.04 z M50.85 11.92 l0 0.08 l0.04 0 l0 -0.08 l-0.04 0 z M50.61 11.76 l0 0.06 l0.04 0 c0 -0.04 0 -0.04 -0.04 -0.06 z M42.150000000000006 11.64 l0.02 0 c0.02 0 -0.06 0 -0.06 0 l0.04 0 z M42.99 11.64 l0.1 0 l-0.04 -0.04 c-0.06 0 -0.06 0.02 -0.06 0.04 z M50.27 11.56 c0 0.08 0.12 0.08 0.16 0.08 c-0.06 -0.02 -0.08 -0.06 -0.1 -0.12 c-0.02 0 -0.04 0.02 -0.06 0.04 z M43.290000000000006 11.46 c0.1 0 0.16 0.04 0.22 0.1 l0.06 -0.04 c-0.08 0 -0.04 -0.16 -0.1 -0.2 l0.02 0 c-0.04 0 -0.2 0 -0.2 0.14 z M45.25 11.52 l0 0.04 l0.02 0 z M41.550000000000004 11.3 l0 0.22 c0.02 0 0.04 -0.02 0.08 -0.06 c0 -0.16 -0.02 -0.14 -0.08 -0.16 z M47.21 11.46 l0 0.06 l0.06 -0.06 l-0.06 0 z M41.99 11.4 l0.08 0.04 c0.08 0 0.12 -0.06 0.12 -0.14 c-0.06 0.02 -0.16 0 -0.2 0.1 z M42.53 11.36 c-0.1 0 -0.12 0.02 -0.12 0.08 l0.12 0 l0 -0.08 z M42.99 11.4 c-0.02 0 -0.02 0.02 -0.02 0.02 c0 0.02 0 0.02 0.02 0.02 l0 -0.04 z M43.95 11.4 c-0.02 0 -0.04 0.02 -0.04 0.02 c0 0.02 0.02 0.02 0.04 0.02 s0.02 0 0.02 -0.02 c0 0 0 -0.02 -0.02 -0.02 z M47.75 11.2 c-0.02 0 -0.04 0.02 -0.04 0.04 s0.02 0.04 0.04 0.04 s0.02 -0.02 0.02 -0.04 s0 -0.04 -0.02 -0.04 z M67.495 20.1 c-0.3 0 -0.6 -0.16 -0.94 -0.28 l-0.44 -0.44 c-0.02 -0.1 -0.22 -0.42 -0.22 -0.68 c0 -2.74 0.1 -4.96 0.1 -6.68 c0 -0.26 -0.02 -0.4 -0.28 -0.4 c-0.06 0 -0.14 0 -0.22 0.02 c-0.04 0 -0.28 -0.02 -0.32 -0.02 c-0.12 0 -0.26 0.06 -0.5 0.06 c-0.06 -0.16 -0.36 0.04 -0.36 -0.32 s0.28 -0.34 0.44 -0.4 c0 0 0.06 0 0.14 0.04 l0.56 0 c0.36 -0.08 0.34 0 0.5 -0.16 c0.06 -2.02 -0.06 -2.18 0.58 -2.18 c0.02 0 0.58 0.02 0.72 0.02 c0.28 0 0.18 -0.12 1.02 -0.12 l-0.02 0 c0.02 0 0.2 0.06 0.22 0.1 c0 1.72 -0.04 1.68 -0.04 2.18 l0.16 0.16 l0.9 0 c0.04 -0.06 0.54 -0.06 0.7 -0.06 l-0.02 0 s0.42 0.08 0.42 0.28 c0 0.26 -0.04 0.42 -0.68 0.42 c-0.34 0 -0.86 -0.02 -1.32 -0.02 c-0.14 0 -0.2 1.2 -0.2 1.7 c0 0.54 0.04 0.8 0.04 1.22 c0 1.14 -0.06 2.66 -0.06 3.08 c0 0.36 0.02 0.7 0.1 0.76 l0 -0.02 c0.04 0 -0.04 0.76 0.76 0.76 c0.44 0 0.46 0 0.78 -0.2 c-0.02 0 0.32 -0.32 0.32 -0.4 l0 -0.02 s0.1 -0.64 0.54 -0.64 c0.26 0 0.36 0.28 0.36 0.46 c0 0.08 -0.22 0.22 -0.22 0.38 c0 0.44 -0.82 0.82 -0.9 1.04 c-0.06 -0.04 -0.18 0.16 -0.26 0.16 c-0.46 0 -0.54 0.2 -1.04 0.2 l-0.02 0 c-0.42 0 -0.8 0.08 -0.8 0.08 l0 0 c-0.16 0 -0.36 -0.04 -0.5 -0.08 z M67.275 19.86 c0 -0.02 -0.02 -0.02 -0.02 -0.02 l0 0.06 s0.02 -0.02 0.02 -0.04 z M69.59500000000001 19.8 c-0.02 0 -0.02 0.02 -0.02 0.04 c0 0 0 0.02 0.02 0.02 l0 -0.06 z M67.17500000000001 19.76 c-0.02 0 -0.04 0.02 -0.04 0.04 c0 0 0.02 0.02 0.04 0.02 s0.02 -0.02 0.02 -0.02 c0 -0.02 0 -0.04 -0.02 -0.04 z M66.83500000000001 19.6 c-0.02 0 -0.04 0.02 -0.04 0.04 c0 0 0.02 0.02 0.04 0.02 l0.02 -0.02 c0 -0.02 -0.02 -0.04 -0.02 -0.04 z M66.51500000000001 19.54 c-0.02 0 -0.04 0.02 -0.04 0.02 l0.06 0 z M70.275 19.16 l0 0.12 l0.04 -0.04 c0 -0.04 -0.04 -0.08 -0.04 -0.08 z M66.17500000000001 19.12 l-0.02 0.02 c0 0.02 0.02 0.02 0.02 0.02 c0.02 0 0.02 0 0.02 -0.02 c0 0 0 -0.02 -0.02 -0.02 z M66.23500000000001 18.84 c0 0.04 0 0.04 0.02 0.04 l0.02 0 l0 0 z M70.95500000000001 18.54 c-0.02 0 -0.04 0.02 -0.04 0.02 c0 0.02 0.02 0.02 0.04 0.02 c0 0 0.02 0 0.02 -0.02 z M66.055 18.14 l0 0.04 l0.06 0 z M70.81500000000001 18.06 c-0.02 0 -0.02 0.02 -0.02 0.02 c0 0.02 0 0.02 0.02 0.02 s0.02 0 0.02 -0.02 c0 0 0 -0.02 -0.02 -0.02 z M70.97500000000001 18.06 l-0.02 0.04 l0.08 0 z M66.055 15.98 l0 -0.04 l0 0.04 z M64.51500000000001 11.48 c0 0.02 -0.02 0.02 -0.02 0.04 s0.02 0.02 0.06 0.04 l0 -0.08 l-0.04 0 z M64.43500000000002 11.32 l0 0 l-0.02 0 c0 0 -0.02 0.02 -0.02 0.08 c0 0.02 0.02 0.06 0.02 0.06 c0.04 0 0.04 -0.04 0.04 -0.06 c0 -0.04 0 -0.06 -0.02 -0.08 z M69.65500000000002 11.36 l0 0.06 c0.04 0 0.04 -0.02 0.04 -0.06 l-0.04 0 z M64.75500000000001 11.26 l0 0.06 c0.02 -0.02 0.04 -0.04 0.04 -0.06 l-0.04 0 z M64.555 11.16 c-0.04 0 -0.12 0.08 -0.12 0.1 l0.2 0 c-0.02 -0.04 -0.06 -0.08 -0.08 -0.1 z M67.69500000000001 9.36 l0 0.1 c0.1 0 0.1 -0.02 0.12 -0.1 l-0.12 0 z M66.17500000000001 9.32 c0 0 -0.02 0.02 -0.02 0.04 s0.02 0.04 0.02 0.04 c0.02 0 0.02 -0.02 0.02 -0.04 s0 -0.04 -0.02 -0.04 z M66.17500000000001 9.16 l0 0.12 c0.04 -0.02 0.04 -0.06 0.04 -0.12 l-0.04 0 z M66.67500000000001 9.08 c0 0.02 -0.02 0.04 0.04 0.04 c0 -0.04 -0.04 -0.04 -0.04 -0.04 z M66.17500000000001 8.94 l0 0.1 l0.1 0 c0 -0.06 -0.06 -0.08 -0.1 -0.1 z M67.69500000000001 8.92 l0 0.08 c0.04 -0.02 0.04 -0.06 0.04 -0.08 l-0.04 0 z M68.15500000000002 8.76 c0 0 0 0.12 0.08 0.16 l0.04 -0.04 c0 -0.02 -0.02 -0.16 -0.1 -0.16 z M83.14000000000001 20.02 l-0.1 -0.12 l0 -0.34 c0 -0.04 0.14 -0.18 0.16 -0.2 l1.32 0 c0.06 -0.04 0.14 -0.1 0.16 -0.16 l0 -1.14 c0.04 0 0.06 -0.06 0.06 -0.1 s-0.06 -0.3 -0.06 -0.38 l0 -5.44 c0 -0.3 -0.12 -0.34 -0.2 -0.46 l-0.82 0 c-0.08 0.04 -0.14 0.04 -0.18 0.04 c-0.66 0 -0.68 -0.12 -0.68 -0.3 c0 -0.36 0.88 -0.4 1.48 -0.4 c0.44 0 0.46 0.02 0.9 0.02 c1.22 0 1.18 -0.1 1.44 -0.1 c0.2 0 0.48 0 0.48 0.42 c0 0.08 0.08 0.56 0.08 0.62 c0 0 0 0.06 -0.04 0.1 c0 0.3 0.04 0.46 0.14 0.46 c0.12 0 0.28 -0.32 0.36 -0.46 c0 -0.16 0.76 -0.76 0.88 -0.88 c0.16 0 0.64 -0.34 0.96 -0.34 c0.48 0 0.58 0.02 0.8 0.02 s1.2 0.5 1.2 1.1 l0 0.64 c0 0.44 -0.24 0.54 -0.46 0.78 c-0.14 0.04 -0.5 0.38 -0.74 0.38 c-0.92 0 -1.44 -0.74 -1.44 -1.54 c0.12 0.06 -0.16 -0.16 -0.16 -0.24 c-0.44 0 -0.64 0.7 -0.88 0.7 c-0.08 0 -0.2 0.42 -0.28 0.5 c-0.02 0.64 -0.34 0.34 -0.34 1.32 l0 0.92 l0.04 0.12 c0 0.14 -0.04 0.22 -0.04 0.34 c0 0.2 0.08 2.24 0.08 3.12 c0 0.2 0.16 0.18 0.16 0.34 c0.68 0 0.82 -0.04 1 -0.04 c0.66 0 0.74 0.02 0.74 0.4 c-0.02 0.02 0 0.1 -0.06 0.14 l0 -0.02 c-0.04 0 -0.24 0.2 -0.5 0.2 c-0.46 0 0.02 -0.08 -1.16 -0.08 c-0.26 0 -0.96 0.04 -0.96 0.04 l-0.4 0 s-0.2 -0.04 -0.28 -0.04 c-0.1 0 -0.62 0.04 -0.62 0.04 l-1.14 0.02 c-0.14 0 -0.3 0.1 -0.34 0.1 c-0.18 0 -0.36 -0.1 -0.56 -0.1 z M83.10000000000001 19.68 c0 0.08 0.1 0.26 0.1 0.28 l0.1 0 c0 -0.06 -0.12 -0.26 -0.2 -0.28 z M83.68 19.86 c0 0.1 0.1 0.06 0.12 0.1 c0.04 0 0.12 -0.04 0.12 -0.04 c-0.06 0 -0.16 -0.06 -0.24 -0.06 z M84.56000000000002 19.9 l0 0.02 l0.02 0 z M84.20000000000002 19.86 c-0.02 0 -0.04 0.02 -0.04 0.02 c0 0.02 0.02 0.02 0.04 0.02 s0.02 0 0.02 -0.02 c0 0 0 -0.02 -0.02 -0.02 z M88.68 19.84 c0 0.04 0 0.06 0.06 0.06 s0.1 -0.02 0.12 -0.1 c0 -0.02 0 -0.02 -0.02 -0.06 c-0.04 0.12 -0.06 0.1 -0.16 0.1 z M87.76000000000002 19.84 c0.02 0.02 0.06 0.02 0.04 0.04 c0.02 0 0.06 -0.02 0.08 -0.08 l-0.04 -0.06 c-0.06 0.02 -0.02 0.06 -0.08 0.1 z M89.02000000000001 19.6 c-0.04 0.02 -0.04 0.04 -0.04 0.08 l0.04 0 l0 -0.08 z M83.72000000000001 19.6 l0 0.04 l0.04 0 l0 -0.04 l-0.04 0 z M83.30000000000001 19.56 c0 -0.02 -0.02 -0.02 -0.02 -0.02 c-0.02 0 -0.02 0 -0.02 0.02 l0.04 0 z M90.54000000000002 13.559999999999999 c-0.06 0.02 -0.12 0.04 -0.12 0.06 l0.12 -0.02 l0 -0.04 z M90.96000000000001 13.14 l0.02 0.1 l0.04 -0.08 l0 -0.02 l-0.06 0 z M83.58000000000001 11.64 c0 -0.02 0 -0.02 -0.02 -0.02 s-0.04 0 -0.04 0.02 l0.04 0 l0.02 0 z M83.76000000000002 11.52 c-0.04 0.02 -0.06 0.04 -0.06 0.06 l0.02 0.02 l0.04 0 l0 -0.08 z M83.92000000000002 11.52 c0.04 0.04 0.02 0.06 0.04 0.04 l0 -0.04 l-0.04 0 z M84.12000000000002 11.56 c0 -0.02 0 -0.02 -0.02 -0.02 c0 0 -0.02 0 -0.02 0.02 s0.02 0.04 0.02 0.04 c0.02 0 0.02 -0.02 0.02 -0.04 z M83.26000000000002 11.28 l0.1 0.12 c0.02 0 0.1 -0.02 0.16 -0.04 c0.12 0 0.26 0.04 0.3 0.04 s0.14 -0.02 0.14 -0.08 c-0.08 -0.06 -0.28 -0.08 -0.66 -0.08 z M82.98000000000002 11.32 l0.04 0.04 c0.02 0 0.02 0 0.04 -0.04 l-0.02 -0.02 z M86.86000000000001 11.14 c-0.04 0.02 -0.08 0 -0.08 0.1 l0 0.04 c0.08 0 0.08 -0.12 0.08 -0.14 z M103.58500000000001 19.64 c-0.04 -0.02 -0.04 -0.02 -0.04 -0.04 l0.02 0.02 c0.02 0 0.02 -0.02 0.02 -0.02 c0 -0.04 -0.06 -0.12 -0.36 -0.4 c0 0 0.02 -0.2 0.02 -0.24 c-0.04 0.04 -0.08 0.04 -0.1 0.04 c-0.24 0 -0.28 -0.98 -0.28 -1.06 c0 -1.12 0.48 -1.56 0.86 -1.76 l0 0.02 c0 0 0.12 -0.26 0.22 -0.26 c0 -0.12 0.2 0.1 0.56 -0.34 l-0.04 0 c0 -0.04 0.76 -0.18 0.76 -0.22 c0.02 0 0.22 -0.14 0.26 -0.14 c1.66 -0.16 2.66 -0.18 2.66 -0.62 l0 -2.24 c0 -0.6 -0.6 -0.62 -0.6 -1.06 l-0.06 0 l0 0.08 c-0.26 0 -0.66 0.02 -0.68 -0.04 c-0.02 0 -0.04 0.02 -0.08 0.02 s-0.08 -0.02 -0.12 -0.02 c-0.08 0 -0.14 0.04 -0.18 0.2 c-0.06 0 -0.1 -0.06 -0.12 -0.1 l-0.04 0.02 c-0.1 0 -0.9 -0.02 -0.9 0.46 c0 0.02 0.2 0.12 0.2 0.28 c0 0.14 0.34 0.28 0.34 0.66 c0 0.18 0.02 0.32 0.02 0.32 c0 0.04 0 0.64 -0.36 0.74 c-0.08 0 -0.14 0.38 -1.06 0.38 c-0.14 0 -0.3 0 -0.4 -0.14 c-0.42 -0.24 -0.5 -0.32 -0.5 -0.4 c0 -0.04 0.02 -0.08 0.02 -0.16 s-0.02 -0.22 -0.18 -0.42 l0 -0.46 c0.04 -0.38 0.22 -0.4 0.24 -0.64 c0.08 0.04 0.18 -0.26 0.34 -0.36 c0 0 0.52 -0.3 0.48 -0.34 c0.02 0 0.02 0.02 0.04 0.02 c0.08 0 -0.06 -0.26 0.58 -0.26 c0.88 0 -0.48 -0.32 1.74 -0.32 c2.56 0 1.68 0.42 2.7 0.42 c0.5 0.46 0.56 0.4 0.66 0.6 c-0.02 0 -0.02 -0.02 -0.02 -0.02 c-0.02 0.02 0.3 0.48 0.3 1.2 l0 1.26 l-0.04 0.02 c0 1.66 0.08 3.04 0.08 4.22 c0 0.36 0.12 0.44 0.38 0.5 c0.48 -0.06 0.66 -0.16 0.8 -0.16 c0.1 0 0.18 0.02 0.22 0.14 c0 0.32 -0.74 1.08 -1.42 1.08 c-0.7 0 -1.08 0 -1.4 -0.12 c-0.76 -0.74 -0.66 -0.82 -0.84 -1.06 c-0.38 0 -0.52 0.16 -0.52 0.28 c0 -0.02 -1 0.82 -1.22 0.82 c-0.08 0 -0.8 0.08 -0.86 0.16 l-0.08 -0.04 c-0.58 0 -0.8 0.06 -0.94 0.06 c-0.26 0 -0.12 -0.08 -1.08 -0.56 z M103.805 19.54 c-0.02 0 -0.04 0.02 -0.04 0.02 c0 0.02 0.02 0.04 0.04 0.04 s0.02 -0.02 0.02 -0.04 c0 0 0 -0.02 -0.02 -0.02 z M104.805 19.54 c-0.02 0 -0.02 0.02 -0.02 0.02 c0 0.02 0 0.04 0.02 0.04 s0.02 -0.02 0.02 -0.04 c0 0 0 -0.02 -0.02 -0.02 z M103.805 19.44 c-0.02 0 -0.04 0.02 -0.04 0.04 c0 0 0.02 0.02 0.04 0.02 s0.02 -0.02 0.02 -0.02 c0 -0.02 0 -0.04 -0.02 -0.04 z M111.605 19.32 c0 0.02 0.02 0.04 0.04 0.06 l0.02 -0.04 s0 -0.04 -0.02 -0.06 z M111.405 19.28 c-0.02 0 -0.04 0.02 -0.04 0.04 c0 0 0.02 0.02 0.04 0.02 s0.02 -0.02 0.02 -0.02 c0 -0.02 0 -0.04 -0.02 -0.04 z M111.76500000000001 19 l-0.02 0.02 c0 0.04 0.02 0.08 0.06 0.1 l0.02 -0.08 c0 -0.02 -0.02 -0.04 -0.06 -0.04 z M105.28500000000001 17.6 l0 0.16 c0.28 0.68 0.04 0.6 0.4 0.84 c0.02 0.06 0.18 0.42 0.86 0.42 c0.74 0 0.94 -0.44 1.48 -0.9 c0 -0.62 0.16 -1.82 0.16 -2.2 c0 -0.2 -0.02 -0.38 -0.2 -0.44 c-0.54 0 -1.2 0.1 -1.4 0.1 c-0.02 -0.02 -0.02 -0.04 -0.04 -0.04 c0.02 0 0.02 0 0.02 0.02 c0 0.06 -0.86 0.46 -1.08 0.82 c0 0.02 0.02 0.02 0.02 0.04 c0 0.1 -0.22 0.22 -0.22 1.18 z M103.00500000000001 18.26 c-0.02 0 -0.04 0.02 -0.04 0.04 l0.04 0 l0.02 0 c0 -0.02 0 -0.04 -0.02 -0.04 z M103.06500000000001 17.4 l0 0.04 l0.04 -0.04 l-0.04 0 z M105.64500000000001 13.48 c-0.02 0 -0.04 0.02 -0.04 0.04 c0 0 0.02 0.02 0.04 0.02 s0.02 -0.02 0.02 -0.02 c0 -0.02 0 -0.04 -0.02 -0.04 z M103.58500000000001 12.879999999999999 l0 0.2 l0.02 0 z M103.58500000000001 12.74 c0 0.02 -0.02 0.02 -0.02 0.04 s0.02 0.02 0.04 0.02 c0.06 -0.02 0.08 -0.08 0.08 -0.22 c-0.06 0.04 -0.1 0.12 -0.1 0.14 l0 0.02 z M103.685 12.42 c-0.02 0 -0.04 0.02 -0.04 0.02 c0 0.02 0.02 0.02 0.04 0.02 s0.02 0 0.02 -0.02 c0 0 0 -0.02 -0.02 -0.02 z M104.12500000000001 11.98 c-0.02 0 -0.08 0.02 -0.12 0.02 c0 0 0.02 0.02 0.04 0.02 s0.04 -0.02 0.08 -0.04 z M104.58500000000001 11.58 c-0.02 0 -0.04 0.02 -0.04 0.02 c0 0.02 0.02 0.02 0.04 0.02 s0.02 0 0.02 -0.02 c0 0 0 -0.02 -0.02 -0.02 z M108.905 11.28 c-0.02 0 -0.04 0.02 -0.04 0.04 s0.02 0.04 0.04 0.04 c0 0 0.02 -0.02 0.02 -0.04 s-0.02 -0.04 -0.02 -0.04 z M105.385 11.26 c0 0.02 0 0.04 0.02 0.04 s0.02 -0.02 0.04 -0.02 l0 -0.04 c-0.02 0 -0.06 0 -0.06 0.02 z M105.805 11.2 c0.04 0 0.1 0.04 0.12 0.04 c0.04 0 0.1 -0.04 0.1 -0.08 c-0.2 0 -0.16 -0.02 -0.22 0.04 z M127.49000000000001 20.2 c-0.44 0 -0.84 -0.26 -1.28 -0.3 c-0.12 0 -0.32 -0.32 -0.6 -0.32 c-0.14 0 -0.34 -0.42 -0.56 -0.42 c-0.36 -0.38 -0.24 -0.24 -0.26 -0.3 l0 0.02 c0 -0.02 -0.04 -0.08 -0.52 -0.56 c0 -0.16 -0.22 -0.24 -0.42 -0.74 c0 -0.02 0.02 -0.02 0.02 -0.04 c0 -0.08 -0.48 -0.86 -0.48 -1.98 c0 -0.72 0.22 -1.1 0.22 -1.66 c0.14 -0.16 0.16 -0.22 0.16 -0.26 c0 -0.02 -0.04 -0.02 -0.04 -0.06 c0 -0.06 0.06 -0.2 0.38 -0.62 c0 -0.26 0.24 -0.22 0.32 -0.46 l0 0.02 c-0.1 -0.26 1.24 -1.08 1.38 -1.28 l0.02 0.02 c0.02 0 0.5 -0.5 3 -0.5 c0.68 0 1.14 0.4 1.3 0.42 c0.04 0 0.06 0 0.1 -0.02 c-0.02 0 0.74 0.36 0.8 0.62 c0 0.08 0.38 0.38 0.38 0.52 c0 0.06 0.16 0.54 0.16 0.74 c0 0.64 -0.34 0.66 -0.34 0.94 c0 0 -0.12 0.32 -0.58 0.38 c0 0.06 -0.56 0.06 -0.56 0.1 c-0.02 0 -0.02 0.02 -0.02 0.02 c-0.04 0 -0.54 -0.38 -0.78 -0.38 l0.02 0.02 c-0.1 0 -0.4 -0.52 -0.4 -0.9 c0 -0.5 0.16 -0.48 0.22 -0.82 c0.48 -0.26 0.16 -0.22 0.4 -0.54 c-0.02 0.02 -0.02 0.02 -0.04 0.02 c0 -0.04 0.02 -0.08 0.02 -0.16 c0 -0.14 -0.08 -0.28 -0.44 -0.28 c0.04 0 -0.48 -0.16 -0.52 -0.28 c-1.82 0 -1.4 0.36 -2 0.74 c-0.28 -0.02 -0.42 2.74 -0.42 3.52 c0 2.7 0.34 3.54 0.52 3.54 c0.04 0 0.02 0 0.02 -0.02 c0 0 0.3 0.6 0.94 0.6 c0.84 0 1.18 -0.02 1.46 -0.02 c0 0 0.68 -0.08 1.02 -0.56 c0.26 0 0.9 -0.8 0.9 -1.14 c0.38 -0.86 0.34 -0.9 0.66 -0.9 c0 0 0 0.02 0.02 0.02 c0 0 0.04 -0.02 0.06 -0.02 c0.08 0 0.16 0.04 0.16 0.22 c0 0.86 -0.32 0.76 -0.44 1.22 l0 -0.02 c-0.04 0 -0.28 0.64 -0.54 0.76 c-0.16 0.16 -0.3 0.12 -0.94 0.76 c-0.48 0.12 -0.62 0.14 -0.68 0.2 l-0.34 0 c-0.02 0 0.02 -0.08 -0.04 -0.08 c-0.02 0 -0.16 0 -0.16 0.02 s0.02 0.04 0.08 0.06 c-0.1 0.14 -0.18 0.18 -0.28 0.2 l0 -0.06 l-0.28 0 l-0.04 0.06 l-0.06 -0.04 l0.04 -0.02 c-0.16 0 -0.18 0 -0.2 0.02 c-0.2 0 -0.16 0 -0.24 -0.02 c0 0 -0.02 0 -0.04 0.02 z M127.45 20.04 c0.06 0 0.12 0.04 0.14 0.02 c0 -0.02 -0.02 -0.04 -0.02 -0.06 c-0.08 0 -0.08 0 -0.12 0.04 z M129.11 19.98 c-0.02 0 -0.04 0.02 -0.04 0.04 c0 0 0.02 0.02 0.04 0.02 l0.02 -0.02 c0 -0.02 -0.02 -0.04 -0.02 -0.04 z M127.73 19.74 l0 0.12 l0.02 -0.08 z M129.85 19.7 c-0.1 0 -0.12 0.04 -0.12 0.1 c0 0.02 -0.02 0.08 0.02 0.08 c0.02 0 0.1 -0.08 0.1 -0.18 z M129.29000000000002 19.62 l0 0.04 s0.1 0.04 0.14 0.04 l0.06 -0.02 c0 -0.08 -0.08 -0.06 -0.2 -0.06 z M129.01000000000002 19.66 c-0.02 0 -0.04 0.02 -0.04 0.02 s0.02 0.02 0.04 0.02 l0 -0.04 z M129.91 19.62 c0.02 0.02 0.06 0.04 0.06 0.04 l0 0 c0.04 0 0.1 -0.04 0.12 -0.08 c-0.16 0 -0.18 -0.02 -0.18 0.04 z M129.73000000000002 19.58 l0 0.04 l0 -0.06 l0 0.02 z M129.69 19.52 c-0.02 0 -0.04 0 -0.04 0.02 l0.04 0 l0.02 0 c0 -0.02 0 -0.02 -0.02 -0.02 z M129.97 19.32 c-0.02 0 -0.04 0.02 -0.04 0.04 c0 0 0.02 0.02 0.04 0.02 s0.02 -0.02 0.02 -0.02 c0 -0.02 0 -0.04 -0.02 -0.04 z M130.51000000000002 18.92 c0.06 0.04 0.1 0.04 0.14 0.04 l-0.06 -0.12 c-0.06 0 -0.08 0.02 -0.08 0.08 z M130.95000000000002 18.46 c0 0.02 0.04 0.02 0.04 0.02 z M124.31 17.66 c-0.02 0 -0.04 0.02 -0.04 0.04 l0.04 0 l0.02 0 c0 -0.02 0 -0.04 -0.02 -0.04 z M124.01 17.4 l0 0.02 l0.04 -0.02 l-0.04 0 z M131.65 17.259999999999998 c0 0.04 0.02 0.12 0.04 0.12 s0.02 -0.02 0.02 -0.04 s-0.02 -0.04 -0.06 -0.1 l0 0.02 z M131.41 17.259999999999998 l0 0.08 c0.02 -0.02 0.04 -0.04 0.04 -0.08 l-0.04 0 z M131.53 17 l0 0.04 l0.12 0 l0 -0.04 l-0.12 0 z M123.69000000000001 16.4 c-0.02 0 -0.04 0.02 -0.04 0.04 c0 0 0.02 0.02 0.04 0.02 s0.02 -0.02 0.02 -0.02 c0 -0.02 0 -0.04 -0.02 -0.04 z M123.53 15.719999999999999 l0 0.02 l0.04 0 z M123.63000000000001 14.96 c-0.02 0.02 -0.04 0.02 -0.04 0.02 c0 0.02 0.02 0.04 0.04 0.04 c0 0 0 -0.02 0.02 -0.04 z M123.63000000000001 14.82 l-0.02 0 c0 0.02 0 0.02 0.02 0.02 c0 0 0.02 0 0.02 -0.02 l-0.02 0 z M130.51000000000002 14.34 c-0.02 0 -0.02 0.02 -0.02 0.04 c0 0 0 0.02 0.02 0.02 s0.02 -0.02 0.02 -0.02 c0 -0.02 0 -0.04 -0.02 -0.04 z M130.23000000000002 14.24 c-0.02 0 -0.04 0.02 -0.04 0.04 c0 0 0.02 0.02 0.04 0.02 s0.02 -0.02 0.02 -0.02 c0 -0.02 0 -0.04 -0.02 -0.04 z M129.07 13.379999999999999 c-0.02 0 -0.04 0 -0.04 0.02 s0.02 0.04 0.04 0.04 s0.02 -0.02 0.02 -0.04 s0 -0.02 -0.02 -0.02 z M131.41 13.34 c-0.08 0 -0.1 0.04 -0.12 0.1 c0.06 0.02 0.12 -0.06 0.12 -0.1 z M129.07 12.96 c-0.02 0 -0.04 0.02 -0.04 0.04 c0 0 0.02 0.02 0.04 0.02 s0.02 -0.02 0.02 -0.02 c0 -0.02 0 -0.04 -0.02 -0.04 z M131.33 12.64 c-0.1 0 -0.08 0.04 -0.08 0.08 c0.06 -0.02 0.1 -0.06 0.08 -0.08 z M130.43 11.5 c-0.02 0 -0.04 0.02 -0.04 0.04 s0.02 0.04 0.04 0.04 s0.02 -0.02 0.02 -0.04 s0 -0.04 -0.02 -0.04 z M129.91 11.46 c-0.02 0 -0.02 0.02 -0.02 0.02 c0 0.02 0 0.02 0.02 0.02 l0 -0.04 z M126.11000000000001 11.4 l-0.06 0.04 l0.16 0 s-0.08 -0.04 -0.1 -0.04 z M129.97 11.4 c-0.02 0 -0.04 0.02 -0.04 0.04 c0 0 0.02 0.02 0.04 0.02 s0.02 -0.02 0.02 -0.02 c0 -0.02 0 -0.04 -0.02 -0.04 z M126.95 11.12 c0.08 0.08 0.14 0.16 0.2 0.22 c0 -0.14 0.1 -0.22 0.24 -0.22 l-0.06 -0.08 c-0.24 0 -0.3 0.06 -0.38 0.08 z M129.73000000000002 11.24 l0 0.04 c0.02 0 0.02 0 0.02 -0.02 c0 0 0 -0.02 -0.02 -0.02 z M128.39000000000001 10.88 c-0.14 0 -0.12 0.12 -0.12 0.16 l0.16 0 c0 -0.02 -0.02 -0.14 -0.04 -0.16 z M146.375 20.1 c-0.3 0 -0.6 -0.16 -0.94 -0.28 l-0.44 -0.44 c-0.02 -0.1 -0.22 -0.42 -0.22 -0.68 c0 -2.74 0.1 -4.96 0.1 -6.68 c0 -0.26 -0.02 -0.4 -0.28 -0.4 c-0.06 0 -0.14 0 -0.22 0.02 c-0.04 0 -0.28 -0.02 -0.32 -0.02 c-0.12 0 -0.26 0.06 -0.5 0.06 c-0.06 -0.16 -0.36 0.04 -0.36 -0.32 s0.28 -0.34 0.44 -0.4 c0 0 0.06 0 0.14 0.04 l0.56 0 c0.36 -0.08 0.34 0 0.5 -0.16 c0.06 -2.02 -0.06 -2.18 0.58 -2.18 c0.02 0 0.58 0.02 0.72 0.02 c0.28 0 0.18 -0.12 1.02 -0.12 l-0.02 0 c0.02 0 0.2 0.06 0.22 0.1 c0 1.72 -0.04 1.68 -0.04 2.18 l0.16 0.16 l0.9 0 c0.04 -0.06 0.54 -0.06 0.7 -0.06 l-0.02 0 s0.42 0.08 0.42 0.28 c0 0.26 -0.04 0.42 -0.68 0.42 c-0.34 0 -0.86 -0.02 -1.32 -0.02 c-0.14 0 -0.2 1.2 -0.2 1.7 c0 0.54 0.04 0.8 0.04 1.22 c0 1.14 -0.06 2.66 -0.06 3.08 c0 0.36 0.02 0.7 0.1 0.76 l0 -0.02 c0.04 0 -0.04 0.76 0.76 0.76 c0.44 0 0.46 0 0.78 -0.2 c-0.02 0 0.32 -0.32 0.32 -0.4 l0 -0.02 s0.1 -0.64 0.54 -0.64 c0.26 0 0.36 0.28 0.36 0.46 c0 0.08 -0.22 0.22 -0.22 0.38 c0 0.44 -0.82 0.82 -0.9 1.04 c-0.06 -0.04 -0.18 0.16 -0.26 0.16 c-0.46 0 -0.54 0.2 -1.04 0.2 l-0.02 0 c-0.42 0 -0.8 0.08 -0.8 0.08 l0 0 c-0.16 0 -0.36 -0.04 -0.5 -0.08 z M146.155 19.86 c0 -0.02 -0.02 -0.02 -0.02 -0.02 l0 0.06 s0.02 -0.02 0.02 -0.04 z M148.475 19.8 c-0.02 0 -0.02 0.02 -0.02 0.04 c0 0 0 0.02 0.02 0.02 l0 -0.06 z M146.055 19.76 c-0.02 0 -0.04 0.02 -0.04 0.04 c0 0 0.02 0.02 0.04 0.02 s0.02 -0.02 0.02 -0.02 c0 -0.02 0 -0.04 -0.02 -0.04 z M145.715 19.6 c-0.02 0 -0.04 0.02 -0.04 0.04 c0 0 0.02 0.02 0.04 0.02 l0.02 -0.02 c0 -0.02 -0.02 -0.04 -0.02 -0.04 z M145.395 19.54 c-0.02 0 -0.04 0.02 -0.04 0.02 l0.06 0 z M149.155 19.16 l0 0.12 l0.04 -0.04 c0 -0.04 -0.04 -0.08 -0.04 -0.08 z M145.055 19.12 l-0.02 0.02 c0 0.02 0.02 0.02 0.02 0.02 c0.02 0 0.02 0 0.02 -0.02 c0 0 0 -0.02 -0.02 -0.02 z M145.115 18.84 c0 0.04 0 0.04 0.02 0.04 l0.02 0 l0 0 z M149.835 18.54 c-0.02 0 -0.04 0.02 -0.04 0.02 c0 0.02 0.02 0.02 0.04 0.02 c0 0 0.02 0 0.02 -0.02 z M144.935 18.14 l0 0.04 l0.06 0 z M149.695 18.06 c-0.02 0 -0.02 0.02 -0.02 0.02 c0 0.02 0 0.02 0.02 0.02 s0.02 0 0.02 -0.02 c0 0 0 -0.02 -0.02 -0.02 z M149.85500000000002 18.06 l-0.02 0.04 l0.08 0 z M144.935 15.98 l0 -0.04 l0 0.04 z M143.395 11.48 c0 0.02 -0.02 0.02 -0.02 0.04 s0.02 0.02 0.06 0.04 l0 -0.08 l-0.04 0 z M143.315 11.32 l0 0 l-0.02 0 c0 0 -0.02 0.02 -0.02 0.08 c0 0.02 0.02 0.06 0.02 0.06 c0.04 0 0.04 -0.04 0.04 -0.06 c0 -0.04 0 -0.06 -0.02 -0.08 z M148.535 11.36 l0 0.06 c0.04 0 0.04 -0.02 0.04 -0.06 l-0.04 0 z M143.63500000000002 11.26 l0 0.06 c0.02 -0.02 0.04 -0.04 0.04 -0.06 l-0.04 0 z M143.435 11.16 c-0.04 0 -0.12 0.08 -0.12 0.1 l0.2 0 c-0.02 -0.04 -0.06 -0.08 -0.08 -0.1 z M146.57500000000002 9.36 l0 0.1 c0.1 0 0.1 -0.02 0.12 -0.1 l-0.12 0 z M145.055 9.32 c0 0 -0.02 0.02 -0.02 0.04 s0.02 0.04 0.02 0.04 c0.02 0 0.02 -0.02 0.02 -0.04 s0 -0.04 -0.02 -0.04 z M145.055 9.16 l0 0.12 c0.04 -0.02 0.04 -0.06 0.04 -0.12 l-0.04 0 z M145.555 9.08 c0 0.02 -0.02 0.04 0.04 0.04 c0 -0.04 -0.04 -0.04 -0.04 -0.04 z M145.055 8.94 l0 0.1 l0.1 0 c0 -0.06 -0.06 -0.08 -0.1 -0.1 z M146.57500000000002 8.92 l0 0.08 c0.04 -0.02 0.04 -0.06 0.04 -0.08 l-0.04 0 z M147.035 8.76 c0 0 0 0.12 0.08 0.16 l0.04 -0.04 c0 -0.02 -0.02 -0.16 -0.1 -0.16 z M161.54000000000002 19.8 c0 -0.38 0.28 -0.42 0.52 -0.42 c0.08 0 0.74 0.06 0.76 0.06 c0.16 0 0.24 -0.08 0.36 -0.08 c0.06 -0.84 0.08 -1.72 0.08 -2.34 c0 -0.04 -0.04 -0.72 -0.04 -0.92 c0 0 0.04 -0.78 0.04 -0.76 c0 -0.08 -0.04 -0.56 -0.04 -0.62 c0 -0.16 0.04 -0.34 0.04 -0.52 c0 -0.04 -0.04 -0.64 -0.04 -0.62 c0 -0.08 0.04 -0.4 0.04 -0.48 c0 -1.14 0.02 -1.46 -0.38 -1.46 c-0.84 0 -0.88 0.02 -1.14 0.02 c-0.3 0 -0.34 -0.04 -0.34 -0.24 c0 -0.32 0.26 -0.36 0.72 -0.36 l0.96 0 c0.04 0 0.1 0.04 0.14 0.04 c0.94 0 0.68 -0.14 1.94 -0.14 c0.62 0 0.38 0.14 0.5 0.46 l0 7.32 l0.04 0.52 c0.02 0.08 0.16 0.16 0.4 0.16 c0.1 0 0.24 -0.04 0.34 -0.04 c0 0.02 0.02 0.02 0.08 0.02 c0.08 0 0.24 -0.02 0.4 -0.02 c0.22 0 0.42 0.02 0.42 0.14 c0 0.42 -0.38 0.48 -0.72 0.48 c-0.64 0 -0.82 -0.12 -0.84 -0.12 c-0.18 0 0.14 0.16 -0.76 0.16 c-0.02 -0.02 -0.4 -0.08 -0.68 -0.08 c-0.12 0 -0.48 0.08 -0.6 0.08 c-0.14 0 -0.18 -0.08 -0.32 -0.08 c-0.06 0.02 -0.3 0.1 -0.42 0.1 c-0.16 0 -0.48 0 -0.48 -0.14 c-0.16 0 -0.02 0.14 -0.26 0.14 c-0.06 0 -0.12 -0.06 -0.2 -0.06 c-0.02 0 -0.12 0.04 -0.16 0.04 c-0.08 0 -0.3 -0.04 -0.36 -0.24 z M162.18 19.72 c0 0.1 0.04 0.22 0.18 0.22 c0 -0.22 -0.1 -0.16 -0.18 -0.22 z M162.12 19.88 c-0.02 0 -0.02 0.02 -0.02 0.02 c0 0.02 0 0.02 0.02 0.02 s0.02 0 0.02 -0.02 c0 0 0 -0.02 -0.02 -0.02 z M162.76000000000002 19.84 c0 0.06 0.02 0.06 0.04 0.08 l0.04 -0.04 s0 -0.04 -0.04 -0.08 z M166.68 19.84 l0 0.04 l0.04 0 l0 -0.04 l-0.04 0 z M161.66 19.72 c0.02 0.04 0.04 0.08 0.14 0.08 c0.02 0 0.04 -0.02 0.1 -0.06 c0 -0.04 -0.06 -0.1 -0.08 -0.12 c0 0.02 -0.16 0.06 -0.16 0.1 z M166.28 19.68 c-0.02 0 -0.04 0.02 -0.04 0.04 s0.02 0.02 0.04 0.02 s0.02 0 0.02 -0.02 s0 -0.04 -0.02 -0.04 z M167.22 19.62 l0 0.1 l0.06 0 l0 -0.1 l-0.06 0 z M167.18 19.56 l-0.04 0 c0 0.02 0.02 0.02 0.04 0.02 s0.02 0 0.02 -0.02 l-0.02 0 z M165.02 12.940000000000001 c0 0.02 -0.02 0.02 -0.02 0.04 s0.02 0.02 0.06 0.04 c0.04 -0.02 0.1 -0.08 0.1 -0.1 s-0.02 -0.02 -0.04 -0.02 c-0.04 0 -0.1 0.04 -0.1 0.04 z M163.94 11.46 l0 0.08 l0.02 0 c0 -0.02 0 -0.06 -0.02 -0.08 z M165.44 11.44 l0 0.06 l0.06 0.04 z M163.18 11.28 c0 0.12 0 0.12 0.04 0.18 c0.04 0 0.04 -0.04 0.06 -0.08 c-0.02 -0.06 -0.04 -0.1 -0.1 -0.1 z M163.62 11.3 c0 0.16 0 0.1 0.08 0.14 c0 -0.14 -0.02 -0.14 -0.08 -0.14 z M165.18 11.3 c0 0.02 -0.02 0.02 -0.02 0.04 s0.02 0.02 0.06 0.04 l0.08 -0.1 l-0.02 -0.02 c-0.08 0 -0.12 0 -0.1 0.04 z M165.5 11.3 c-0.02 0 -0.04 0.02 -0.04 0.02 c0 0.02 0.02 0.02 0.04 0.02 s0.02 0 0.02 -0.02 c0 0 0 -0.02 -0.02 -0.02 z M165.06 11.28 c-0.02 0 -0.04 0 -0.04 0.02 s0.02 0.04 0.04 0.04 l0 -0.04 l0 -0.02 z M162.88 6.539999999999999 c0 -0.12 0.02 -0.26 0.08 -0.54 l0 0.02 c0.02 0 0.1 -0.38 0.22 -0.38 c0.2 0 0.08 -0.46 1 -0.46 c0.9 0 1.68 0.38 1.68 1.5 c0 0.16 -0.04 1.24 -1.38 1.24 c-1.52 0 -1.62 -0.8 -1.62 -1.18 c0 -0.12 0.02 -0.18 0.02 -0.2 z M165 7.48 c-0.02 0 -0.04 0.02 -0.04 0.02 c0 0.02 0.02 0.04 0.04 0.04 c0 0 0.02 -0.02 0.02 -0.04 z M163.02 6.779999999999999 l-0.02 0 c0 0.02 0 0.02 0.02 0.02 s0.02 0 0.02 -0.02 l-0.02 0 z M165.38 5.9 c-0.02 0 -0.04 0 -0.04 0.02 l0.04 0 l0.02 0 c0 -0.02 0 -0.02 -0.02 -0.02 z M165.16 5.619999999999999 c0 -0.02 -0.02 -0.02 -0.02 -0.02 c-0.02 0 -0.02 0 -0.02 0.02 s0 0.02 0.02 0.02 c0 0 0.02 0 0.02 -0.02 z M164.76000000000002 5.460000000000001 c-0.02 0 -0.04 0.02 -0.04 0.06 c0 0 0.02 0.02 0.04 0.02 s0.02 -0.02 0.02 -0.02 c0 -0.04 0 -0.06 -0.02 -0.06 z M163.94 5.34 c0 0.04 0 0.1 0.02 0.12 c0.04 -0.02 0.08 -0.06 0.12 -0.12 l-0.14 0 z M164.70000000000002 5.42 c-0.02 0 -0.02 0.02 -0.02 0.04 c0 0 0 0.02 0.02 0.02 l0 -0.06 z M178.865 19.68 c0 0 -0.02 -0.02 -0.02 -0.06 c0 -0.08 0.1 -0.24 0.72 -0.24 c0.04 0 0.2 0.04 0.3 0.04 c0.48 0 0.54 -0.2 0.54 -0.82 c0 -0.3 -0.04 -0.36 -0.04 -0.44 l0.04 -1.78 c0 -0.44 -0.02 -1.14 0.04 -1.18 c0 -0.26 -0.08 -0.58 -0.08 -0.74 c0 -0.4 0.04 -0.52 0.04 -0.7 l0 -1.72 c0 -0.26 -0.26 -0.36 -0.48 -0.36 c-0.06 0.06 -0.44 0.04 -0.62 0.1 c-0.44 0 -0.48 0.02 -0.62 -0.18 c0.02 -0.32 0 -0.5 0.38 -0.5 c0.08 0 0.7 0.04 0.76 0.04 c0.96 0 2.28 0 2.66 -0.12 c0.32 0.04 0.36 0.32 0.36 0.58 l0 0.26 s0 0.12 0.04 0.12 l0 0.52 c0.02 0.02 0.02 0.06 0.2 0.06 c0.06 0 0.1 -0.02 0.1 -0.06 c0 0.02 0.02 0.02 0.02 0.02 c0.1 0 0.18 -0.58 0.52 -0.76 c-0.02 0 -0.02 0 -0.02 -0.02 c0 -0.04 0.32 -0.08 0.42 -0.3 c0 -0.02 0.38 -0.18 0.44 -0.28 c0.36 -0.16 0.96 -0.18 1.34 -0.24 c0.02 0 0.52 0 0.64 0.06 c0.18 0 1.16 0.18 1.16 0.3 c0.12 0.12 0.9 0.32 0.9 0.82 c0.08 0.52 0.3 -0.12 0.3 1.5 c0 0.02 -0.04 0.38 -0.04 0.4 c0 1.96 0.04 3.28 0.04 5.1 c0 0.24 0.28 0.28 0.3 0.28 c0.12 0 0.18 -0.02 0.3 -0.02 c0.38 0 0.82 -0.02 0.82 0.2 c0 0.44 -0.06 0.46 -0.3 0.46 c-0.2 0 -0.46 -0.02 -0.6 -0.02 l-3.22 0 c-0.5 0 -0.8 0.06 -0.82 0.06 c-0.32 0 -0.54 -0.08 -0.54 -0.44 c0 -0.42 1.48 0 1.48 -0.42 l0 0.02 s0.1 -1.22 0.1 -1.7 c0 0 -0.02 -0.56 -0.02 -0.7 l0 -3.92 c-0.04 -0.02 -0.08 -0.26 -0.08 -0.36 c0 -0.02 -0.14 -0.6 -0.64 -0.78 l-0.74 0 c-0.1 0.04 -0.24 0.1 -0.46 0.16 c-0.2 0 -0.34 0.36 -0.58 0.46 c-0.12 0.14 -0.32 0.18 -0.56 0.92 c0.12 0 -0.16 0.02 -0.16 0.34 c0 0.2 -0.02 0.26 -0.28 1.1 l0 3.1 c0 0.12 -0.02 0.26 -0.02 0.38 c0 0.04 0.02 0.62 0.02 0.9 c-0.02 0 -0.04 0.02 -0.04 0.02 c0 0.08 0.32 0.28 0.32 0.26 c0.24 0 0.5 -0.02 0.76 -0.02 c0.14 0 0.38 0.06 0.38 0.18 l0 0.36 c-0.7 0.14 -1.84 0.14 -2.3 0.14 c-0.18 0 -0.36 -0.04 -0.76 -0.04 c-0.26 0 -0.64 0.04 -0.72 0.04 c-0.02 0 -0.58 -0.04 -0.64 -0.04 c0 -0.02 0.04 -0.12 0.08 -0.16 c0 0 0 -0.02 -0.04 -0.06 c-0.1 0.04 -0.16 0.16 -0.22 0.16 l0.06 0.06 c0 0.08 -0.16 0.08 -0.2 0.08 c-0.1 0 -0.72 0.14 -0.72 -0.42 z M183.365 19.9 c-0.02 0 -0.02 0.02 -0.02 0.02 c0 0.02 0 0.04 0.02 0.04 l0 -0.06 z M185.705 19.76 c0.04 0.08 0.04 0.12 0.04 0.2 c0.06 -0.08 0.1 -0.1 0.14 -0.2 c0 -0.02 -0.08 -0.08 -0.1 -0.08 z M186.365 19.92 c-0.02 0 -0.14 0 -0.12 0 c0 0.02 0.02 0.04 0.06 0.04 c0.02 0 0.06 -0.02 0.06 -0.04 z M189.925 19.9 l0 0.02 l0.04 -0.02 l-0.04 0 z M183.345 19.86 c-0.02 0 -0.04 0.02 -0.04 0.04 s0.02 0.02 0.04 0.02 c0 0 0.02 0 0.02 -0.02 s-0.02 -0.04 -0.02 -0.04 z M189.605 19.9 c0 -0.02 -0.04 -0.02 -0.08 -0.02 s-0.08 0 -0.08 0.02 c0.02 0.02 0.04 0.02 0.08 0.02 c0.02 0 0.06 0 0.08 -0.02 z M190.165 19.52 c-0.16 0 -0.16 0.24 -0.16 0.32 c0.04 -0.08 0.08 -0.12 0.2 -0.24 c0 -0.04 -0.02 -0.06 -0.04 -0.08 z M184.005 19.72 c-0.06 0.04 0.08 0.04 0.26 0.04 c-0.18 -0.02 -0.12 -0.12 -0.18 -0.16 c-0.04 0.04 -0.1 0.08 -0.1 0.1 s0 0.02 0.02 0.02 z M188.54500000000002 19.74 c-0.02 0 -0.02 0 -0.02 0.02 s0 0.04 0.02 0.04 s0.02 -0.02 0.02 -0.04 s0 -0.02 -0.02 -0.02 z M179.025 19.68 l0 0.06 c0.02 0 0.02 -0.02 0.02 -0.06 l-0.02 0 z M180.205 19.68 l0 0.04 l0.08 0 l0 -0.04 l-0.08 0 z M186.485 19.68 l0 0.04 l0.04 0 z M189.54500000000002 19.6 l0.1 0.04 c0.04 0 0.06 0 0.1 -0.04 l-0.04 -0.04 c-0.04 0 -0.06 0 -0.16 0.04 z M189.265 19.6 c0 -0.02 -0.02 -0.02 -0.02 -0.02 c-0.02 0 -0.02 0 -0.02 0.02 s0 0.04 0.02 0.04 c0 0 0.02 -0.02 0.02 -0.04 z M180.525 18.64 c-0.02 0 -0.04 0.02 -0.04 0.02 c0 0.02 0.02 0.04 0.04 0.04 s0.02 -0.02 0.02 -0.04 c0 0 0 -0.02 -0.02 -0.02 z M180.785 15.940000000000001 l0.04 0.02 c0.02 0 0.02 -0.02 0.02 -0.06 c-0.02 0 -0.04 0.02 -0.06 0.04 z M180.525 15.16 c-0.02 0 -0.04 0.02 -0.04 0.02 c0 0.02 0.02 0.02 0.04 0.02 s0.02 0 0.02 -0.02 c0 0 0 -0.02 -0.02 -0.02 z M180.825 14.3 c-0.02 0 -0.04 0.02 -0.04 0.04 c0 0 0.02 0.02 0.04 0.02 s0.02 -0.02 0.02 -0.02 c0 -0.02 0 -0.04 -0.02 -0.04 z M188.165 11.92 l0 0.08 l0.04 0 l0 -0.08 l-0.04 0 z M187.925 11.76 l0 0.06 l0.04 0 c0 -0.04 0 -0.04 -0.04 -0.06 z M179.465 11.64 l0.02 0 c0.02 0 -0.06 0 -0.06 0 l0.04 0 z M180.305 11.64 l0.1 0 l-0.04 -0.04 c-0.06 0 -0.06 0.02 -0.06 0.04 z M187.585 11.56 c0 0.08 0.12 0.08 0.16 0.08 c-0.06 -0.02 -0.08 -0.06 -0.1 -0.12 c-0.02 0 -0.04 0.02 -0.06 0.04 z M180.605 11.46 c0.1 0 0.16 0.04 0.22 0.1 l0.06 -0.04 c-0.08 0 -0.04 -0.16 -0.1 -0.2 l0.02 0 c-0.04 0 -0.2 0 -0.2 0.14 z M182.565 11.52 l0 0.04 l0.02 0 z M178.865 11.3 l0 0.22 c0.02 0 0.04 -0.02 0.08 -0.06 c0 -0.16 -0.02 -0.14 -0.08 -0.16 z M184.525 11.46 l0 0.06 l0.06 -0.06 l-0.06 0 z M179.305 11.4 l0.08 0.04 c0.08 0 0.12 -0.06 0.12 -0.14 c-0.06 0.02 -0.16 0 -0.2 0.1 z M179.845 11.36 c-0.1 0 -0.12 0.02 -0.12 0.08 l0.12 0 l0 -0.08 z M180.305 11.4 c-0.02 0 -0.02 0.02 -0.02 0.02 c0 0.02 0 0.02 0.02 0.02 l0 -0.04 z M181.26500000000001 11.4 c-0.02 0 -0.04 0.02 -0.04 0.02 c0 0.02 0.02 0.02 0.04 0.02 s0.02 0 0.02 -0.02 c0 0 0 -0.02 -0.02 -0.02 z M185.065 11.2 c-0.02 0 -0.04 0.02 -0.04 0.04 s0.02 0.04 0.04 0.04 s0.02 -0.02 0.02 -0.04 s0 -0.04 -0.02 -0.04 z M202.31 24.9 c0 -0.02 0.02 -0.06 0.08 -0.06 c0 -0.06 -0.32 -0.26 -0.32 -0.44 c0 -0.34 -0.22 -0.32 -0.22 -1.38 c0 -0.14 0.04 -0.36 0.34 -0.76 c0.02 0 0.16 -0.44 0.44 -0.48 c0 -0.18 0.58 -0.14 0.58 -0.6 l0 0.02 c-0.04 0 -0.46 -0.42 -0.54 -0.42 c-0.5 -0.28 -0.6 -0.66 -0.6 -0.74 c-0.06 -0.34 -0.26 -0.26 -0.26 -1.12 c0 -0.98 0.38 -1.12 0.38 -1.26 c0 -0.3 0.32 -0.2 0.5 -0.62 l-0.02 0 c0 -0.02 0.9 -0.24 0.9 -0.48 c0 -0.18 -0.34 -0.32 -0.82 -0.8 c-0.12 -0.14 -0.1 -0.32 -0.22 -0.38 c0 -0.2 -0.42 -0.42 -0.42 -1.52 c0 -0.06 0.2 -1.1 0.2 -1.1 l0 0.04 c0.04 0 0.12 -0.56 0.64 -0.9 c0.14 0 0.04 -0.4 0.42 -0.4 c0 0.02 0.02 0.02 0.02 0.02 c0.06 0 0.06 -0.38 0.46 -0.38 c0.88 -0.48 2.52 -0.42 2.4 -0.42 c0.44 0 1.08 0.38 1.36 0.38 c0.08 0 0.18 -0.02 0.2 -0.02 c0.04 0 0 0.04 0.02 0.02 c0 -0.04 0.06 -0.16 0.56 -0.66 c0 0.02 0.02 0.02 0.02 0.02 c0.1 0 0.2 -0.64 1.18 -0.64 c0.22 0 0.56 0.08 0.68 0.08 l-0.04 0 c0 0.02 0.32 0.14 0.38 0.22 c0.28 0 0.44 1.06 0.44 1.02 c0 0.14 -0.14 0.34 -0.12 0.4 c-0.38 0.38 -0.76 0.58 -1 0.58 c-0.02 0 -0.22 -0.08 -0.26 -0.08 c0 -0.02 0 -0.06 -0.04 -0.06 c-0.02 0 -0.06 0.02 -0.12 0.02 c-0.18 0 -0.48 -0.08 -0.76 -0.66 c-0.12 -0.04 -0.18 -0.08 -0.18 -0.08 l0 0 c-0.06 0 -0.16 0.12 -0.26 0.16 c0.48 0.76 0.82 0.96 0.9 1.4 c0 0.26 0.18 -0.06 0.18 0.84 c0 1 -0.18 0.92 -0.18 1.26 c-0.18 0.4 0 0.04 -0.3 0.62 c-0.04 0.24 -0.44 0.32 -0.44 0.54 c0 0.02 -0.32 0.24 -0.4 0.24 c-0.02 0 -0.04 0.1 -0.06 0.1 c0 0 -0.02 0 -0.02 -0.02 c0 0.1 -0.62 0.34 -0.62 0.36 l0 -0.02 c-0.02 0 -0.26 0.32 -1.48 0.32 c-0.26 0 -0.8 -0.08 -1.46 -0.08 c-0.08 0 -0.52 0.04 -0.62 0.04 c-0.02 -0.02 -0.04 -0.02 -0.06 -0.02 c-0.14 0 -0.36 0.38 -0.58 0.38 c-0.5 0.24 -0.6 0.66 -0.6 0.92 c0 0.44 0.34 0.74 0.86 0.74 c0.5 0 1.04 -0.02 1.36 -0.02 l0.02 -0.04 c0.44 0 1.54 -0.1 3.22 -0.1 c0.74 0 1.14 -0.04 1.42 0.22 l-0.02 0.02 c0 0.1 0.5 0.18 0.5 0.5 c0 0.08 0.52 0.36 0.52 1.16 l0 -0.02 s0.06 0.86 0.1 0.86 c0 0.06 -0.08 0.26 -0.08 0.34 c0 0.24 0.04 0.78 -0.16 1.14 l-0.12 0.42 c-0.06 0.04 -0.08 0.14 -0.12 0.16 c-0.4 0.86 -0.62 0.92 -0.78 1.12 c0 0.06 0.04 0.06 0.08 0.1 c-0.06 0.04 -0.14 0.08 -0.16 0.1 l0.02 0 c0 0.02 -0.8 0.48 -0.8 0.54 l0 0 c0 0.02 -0.86 0.26 -0.9 0.46 c-0.32 0 0.2 0.16 -1.46 0.16 c-0.98 0 -0.94 -0.08 -1.54 -0.08 c-0.2 0 -0.8 -0.08 -1.58 -0.66 c-0.16 0 -0.42 -0.52 -0.64 -0.52 z M205.69 26.08 l0.06 -0.02 z M205.65 26.06 c0 -0.02 -0.02 -0.02 -0.04 -0.02 c0 0 -0.02 0 -0.02 0.02 s0.02 0.02 0.02 0.02 c0.02 0 0.04 0 0.04 -0.02 z M206.19 26.06 c0 -0.02 0 -0.02 -0.02 -0.02 l0 0.04 c0.02 0 0.02 0 0.02 -0.02 z M205.33 25.96 c-0.02 0 -0.04 0.02 -0.04 0.04 s0.02 0.04 0.04 0.04 s0.02 -0.02 0.02 -0.04 s0 -0.04 -0.02 -0.04 z M205.25 25.92 l0 0.04 l0.08 -0.04 l-0.08 0 z M204.17000000000002 24.86 c0 0.1 0.4 0.38 0.52 0.44 c0.02 -0.02 0.02 -0.02 0.04 -0.02 c0.16 0 0.46 0.36 1.06 0.36 c1.02 0 1.18 0 1.18 -0.02 s-0.04 -0.04 -0.04 -0.08 s0.12 -0.12 0.82 -0.24 c0.02 0.04 0.04 0.04 0.06 0.04 l-0.02 0 c0 -0.06 0.72 -0.44 0.72 -0.5 l-0.2 0 l-0.02 0.02 c0.2 0.02 0.86 -0.38 1.58 -2.18 c0 -0.82 -0.12 -0.92 -0.12 -1.02 c-0.7 -0.52 -0.9 -0.6 -1.78 -0.6 c-0.24 0 -4.12 0.02 -4.12 0.32 c0 1.06 -0.1 1.04 -0.1 1.72 c0 0.24 0.06 1.26 0.28 1.48 l0.24 0.26 z M208.47 25.32 l0 0.06 c0.12 0 0.12 -0.06 0.14 -0.06 l-0.14 0 z M209.21 24.68 l-0.04 0.02 c0.02 0 0.04 -0.02 0.04 -0.02 z M209.33 24.52 c-0.02 0 -0.04 0.02 -0.04 0.04 c0 0 0.02 0.02 0.04 0.02 s0.02 -0.02 0.02 -0.02 c0 -0.02 0 -0.04 -0.02 -0.04 z M209.25 24.4 l0 0.12 c0 0.02 0.02 0.02 0.02 0.02 c0.02 0 0.04 -0.06 0.06 -0.1 c0 0 -0.02 -0.02 -0.08 -0.04 z M202.15 18.4 c-0.02 0 -0.04 0.02 -0.04 0.04 c0 0 0.02 0.02 0.04 0.02 s0.02 -0.02 0.02 -0.02 c0 -0.02 0 -0.04 -0.02 -0.04 z M202.19 18.16 l0 0.08 l0.04 -0.08 l-0.04 0 z M204.35000000000002 15.34 c0.2 0 -0.14 1.26 1.06 1.26 c1.36 0 1.16 -0.22 1.4 -0.46 l0 0.04 c0.02 0 0.14 -0.84 0.16 -0.84 l0 -1.52 c0 -0.1 0.04 -0.28 0.04 -0.3 c0 -0.12 -0.04 -0.36 -0.04 -0.46 c0 -0.14 0.06 -0.54 0.08 -0.54 c-0.1 -0.3 0.28 -1.3 -1.44 -1.3 c-1 0 -1.06 0.64 -1.14 0.78 c0 0 -0.06 0.58 -0.12 0.72 l0 0.66 l0 0.28 l0 1.68 z M204.79000000000002 11.1 l0 0.02 c0.02 0.02 0.16 0.02 0.16 0.02 c0.04 0 0.06 -0.02 0.1 -0.08 c0 -0.12 -0.06 -0.1 -0.16 -0.1 c0 0.02 0.02 0 0.02 0.06 z M209.81 10.08 l0.06 0.08 c0.06 0 0.06 -0.04 0.06 -0.1 c-0.04 0 -0.12 0 -0.12 0.02 z M209.55 10.02 c-0.02 0 -0.02 0.02 -0.02 0.04 c0 0 0 0.02 0.02 0.02 s0.02 -0.02 0.02 -0.02 c0 -0.02 0 -0.04 -0.02 -0.04 z M209.65 10 c-0.02 0 -0.04 0.02 -0.04 0.02 c0 0.02 0.02 0.04 0.04 0.04 c0 0 0.02 -0.02 0.02 -0.04 z M242.22000000000003 19.8 c0 -0.38 0.28 -0.42 0.52 -0.42 c0.08 0 0.74 0.06 0.76 0.06 c0.16 0 0.24 -0.08 0.36 -0.08 c0.06 -0.84 0.08 -1.72 0.08 -2.34 c0 -0.04 -0.04 -0.72 -0.04 -0.92 c0 0 0.04 -0.78 0.04 -0.76 c0 -0.08 -0.04 -0.56 -0.04 -0.62 c0 -0.16 0.04 -0.34 0.04 -0.52 c0 -0.04 -0.04 -0.64 -0.04 -0.62 c0 -0.08 0.04 -0.4 0.04 -0.48 c0 -1.14 0.02 -1.46 -0.38 -1.46 c-0.84 0 -0.88 0.02 -1.14 0.02 c-0.3 0 -0.34 -0.04 -0.34 -0.24 c0 -0.32 0.26 -0.36 0.72 -0.36 l0.96 0 c0.04 0 0.1 0.04 0.14 0.04 c0.94 0 0.68 -0.14 1.94 -0.14 c0.62 0 0.38 0.14 0.5 0.46 l0 7.32 l0.04 0.52 c0.02 0.08 0.16 0.16 0.4 0.16 c0.1 0 0.24 -0.04 0.34 -0.04 c0 0.02 0.02 0.02 0.08 0.02 c0.08 0 0.24 -0.02 0.4 -0.02 c0.22 0 0.42 0.02 0.42 0.14 c0 0.42 -0.38 0.48 -0.72 0.48 c-0.64 0 -0.82 -0.12 -0.84 -0.12 c-0.18 0 0.14 0.16 -0.76 0.16 c-0.02 -0.02 -0.4 -0.08 -0.68 -0.08 c-0.12 0 -0.48 0.08 -0.6 0.08 c-0.14 0 -0.18 -0.08 -0.32 -0.08 c-0.06 0.02 -0.3 0.1 -0.42 0.1 c-0.16 0 -0.48 0 -0.48 -0.14 c-0.16 0 -0.02 0.14 -0.26 0.14 c-0.06 0 -0.12 -0.06 -0.2 -0.06 c-0.02 0 -0.12 0.04 -0.16 0.04 c-0.08 0 -0.3 -0.04 -0.36 -0.24 z M242.86 19.72 c0 0.1 0.04 0.22 0.18 0.22 c0 -0.22 -0.1 -0.16 -0.18 -0.22 z M242.8 19.88 c-0.02 0 -0.02 0.02 -0.02 0.02 c0 0.02 0 0.02 0.02 0.02 s0.02 0 0.02 -0.02 c0 0 0 -0.02 -0.02 -0.02 z M243.44000000000003 19.84 c0 0.06 0.02 0.06 0.04 0.08 l0.04 -0.04 s0 -0.04 -0.04 -0.08 z M247.36 19.84 l0 0.04 l0.04 0 l0 -0.04 l-0.04 0 z M242.34 19.72 c0.02 0.04 0.04 0.08 0.14 0.08 c0.02 0 0.04 -0.02 0.1 -0.06 c0 -0.04 -0.06 -0.1 -0.08 -0.12 c0 0.02 -0.16 0.06 -0.16 0.1 z M246.96 19.68 c-0.02 0 -0.04 0.02 -0.04 0.04 s0.02 0.02 0.04 0.02 s0.02 0 0.02 -0.02 s0 -0.04 -0.02 -0.04 z M247.9 19.62 l0 0.1 l0.06 0 l0 -0.1 l-0.06 0 z M247.86 19.56 l-0.04 0 c0 0.02 0.02 0.02 0.04 0.02 s0.02 0 0.02 -0.02 l-0.02 0 z M245.70000000000002 12.940000000000001 c0 0.02 -0.02 0.02 -0.02 0.04 s0.02 0.02 0.06 0.04 c0.04 -0.02 0.1 -0.08 0.1 -0.1 s-0.02 -0.02 -0.04 -0.02 c-0.04 0 -0.1 0.04 -0.1 0.04 z M244.62 11.46 l0 0.08 l0.02 0 c0 -0.02 0 -0.06 -0.02 -0.08 z M246.12 11.44 l0 0.06 l0.06 0.04 z M243.86 11.28 c0 0.12 0 0.12 0.04 0.18 c0.04 0 0.04 -0.04 0.06 -0.08 c-0.02 -0.06 -0.04 -0.1 -0.1 -0.1 z M244.3 11.3 c0 0.16 0 0.1 0.08 0.14 c0 -0.14 -0.02 -0.14 -0.08 -0.14 z M245.86 11.3 c0 0.02 -0.02 0.02 -0.02 0.04 s0.02 0.02 0.06 0.04 l0.08 -0.1 l-0.02 -0.02 c-0.08 0 -0.12 0 -0.1 0.04 z M246.18 11.3 c-0.02 0 -0.04 0.02 -0.04 0.02 c0 0.02 0.02 0.02 0.04 0.02 s0.02 0 0.02 -0.02 c0 0 0 -0.02 -0.02 -0.02 z M245.74 11.28 c-0.02 0 -0.04 0 -0.04 0.02 s0.02 0.04 0.04 0.04 l0 -0.04 l0 -0.02 z M243.56 6.539999999999999 c0 -0.12 0.02 -0.26 0.08 -0.54 l0 0.02 c0.02 0 0.1 -0.38 0.22 -0.38 c0.2 0 0.08 -0.46 1 -0.46 c0.9 0 1.68 0.38 1.68 1.5 c0 0.16 -0.04 1.24 -1.38 1.24 c-1.52 0 -1.62 -0.8 -1.62 -1.18 c0 -0.12 0.02 -0.18 0.02 -0.2 z M245.68 7.48 c-0.02 0 -0.04 0.02 -0.04 0.02 c0 0.02 0.02 0.04 0.04 0.04 c0 0 0.02 -0.02 0.02 -0.04 z M243.70000000000002 6.779999999999999 l-0.02 0 c0 0.02 0 0.02 0.02 0.02 s0.02 0 0.02 -0.02 l-0.02 0 z M246.06 5.9 c-0.02 0 -0.04 0 -0.04 0.02 l0.04 0 l0.02 0 c0 -0.02 0 -0.02 -0.02 -0.02 z M245.84 5.619999999999999 c0 -0.02 -0.02 -0.02 -0.02 -0.02 c-0.02 0 -0.02 0 -0.02 0.02 s0 0.02 0.02 0.02 c0 0 0.02 0 0.02 -0.02 z M245.44000000000003 5.460000000000001 c-0.02 0 -0.04 0.02 -0.04 0.06 c0 0 0.02 0.02 0.04 0.02 s0.02 -0.02 0.02 -0.02 c0 -0.04 0 -0.06 -0.02 -0.06 z M244.62 5.34 c0 0.04 0 0.1 0.02 0.12 c0.04 -0.02 0.08 -0.06 0.12 -0.12 l-0.14 0 z M245.38000000000002 5.42 c-0.02 0 -0.02 0.02 -0.02 0.04 c0 0 0 0.02 0.02 0.02 l0 -0.06 z M259.545 19.68 c0 0 -0.02 -0.02 -0.02 -0.06 c0 -0.08 0.1 -0.24 0.72 -0.24 c0.04 0 0.2 0.04 0.3 0.04 c0.48 0 0.54 -0.2 0.54 -0.82 c0 -0.3 -0.04 -0.36 -0.04 -0.44 l0.04 -1.78 c0 -0.44 -0.02 -1.14 0.04 -1.18 c0 -0.26 -0.08 -0.58 -0.08 -0.74 c0 -0.4 0.04 -0.52 0.04 -0.7 l0 -1.72 c0 -0.26 -0.26 -0.36 -0.48 -0.36 c-0.06 0.06 -0.44 0.04 -0.62 0.1 c-0.44 0 -0.48 0.02 -0.62 -0.18 c0.02 -0.32 0 -0.5 0.38 -0.5 c0.08 0 0.7 0.04 0.76 0.04 c0.96 0 2.28 0 2.66 -0.12 c0.32 0.04 0.36 0.32 0.36 0.58 l0 0.26 s0 0.12 0.04 0.12 l0 0.52 c0.02 0.02 0.02 0.06 0.2 0.06 c0.06 0 0.1 -0.02 0.1 -0.06 c0 0.02 0.02 0.02 0.02 0.02 c0.1 0 0.18 -0.58 0.52 -0.76 c-0.02 0 -0.02 0 -0.02 -0.02 c0 -0.04 0.32 -0.08 0.42 -0.3 c0 -0.02 0.38 -0.18 0.44 -0.28 c0.36 -0.16 0.96 -0.18 1.34 -0.24 c0.02 0 0.52 0 0.64 0.06 c0.18 0 1.16 0.18 1.16 0.3 c0.12 0.12 0.9 0.32 0.9 0.82 c0.08 0.52 0.3 -0.12 0.3 1.5 c0 0.02 -0.04 0.38 -0.04 0.4 c0 1.96 0.04 3.28 0.04 5.1 c0 0.24 0.28 0.28 0.3 0.28 c0.12 0 0.18 -0.02 0.3 -0.02 c0.38 0 0.82 -0.02 0.82 0.2 c0 0.44 -0.06 0.46 -0.3 0.46 c-0.2 0 -0.46 -0.02 -0.6 -0.02 l-3.22 0 c-0.5 0 -0.8 0.06 -0.82 0.06 c-0.32 0 -0.54 -0.08 -0.54 -0.44 c0 -0.42 1.48 0 1.48 -0.42 l0 0.02 s0.1 -1.22 0.1 -1.7 c0 0 -0.02 -0.56 -0.02 -0.7 l0 -3.92 c-0.04 -0.02 -0.08 -0.26 -0.08 -0.36 c0 -0.02 -0.14 -0.6 -0.64 -0.78 l-0.74 0 c-0.1 0.04 -0.24 0.1 -0.46 0.16 c-0.2 0 -0.34 0.36 -0.58 0.46 c-0.12 0.14 -0.32 0.18 -0.56 0.92 c0.12 0 -0.16 0.02 -0.16 0.34 c0 0.2 -0.02 0.26 -0.28 1.1 l0 3.1 c0 0.12 -0.02 0.26 -0.02 0.38 c0 0.04 0.02 0.62 0.02 0.9 c-0.02 0 -0.04 0.02 -0.04 0.02 c0 0.08 0.32 0.28 0.32 0.26 c0.24 0 0.5 -0.02 0.76 -0.02 c0.14 0 0.38 0.06 0.38 0.18 l0 0.36 c-0.7 0.14 -1.84 0.14 -2.3 0.14 c-0.18 0 -0.36 -0.04 -0.76 -0.04 c-0.26 0 -0.64 0.04 -0.72 0.04 c-0.02 0 -0.58 -0.04 -0.64 -0.04 c0 -0.02 0.04 -0.12 0.08 -0.16 c0 0 0 -0.02 -0.04 -0.06 c-0.1 0.04 -0.16 0.16 -0.22 0.16 l0.06 0.06 c0 0.08 -0.16 0.08 -0.2 0.08 c-0.1 0 -0.72 0.14 -0.72 -0.42 z M264.045 19.9 c-0.02 0 -0.02 0.02 -0.02 0.02 c0 0.02 0 0.04 0.02 0.04 l0 -0.06 z M266.38500000000005 19.76 c0.04 0.08 0.04 0.12 0.04 0.2 c0.06 -0.08 0.1 -0.1 0.14 -0.2 c0 -0.02 -0.08 -0.08 -0.1 -0.08 z M267.045 19.92 c-0.02 0 -0.14 0 -0.12 0 c0 0.02 0.02 0.04 0.06 0.04 c0.02 0 0.06 -0.02 0.06 -0.04 z M270.605 19.9 l0 0.02 l0.04 -0.02 l-0.04 0 z M264.02500000000003 19.86 c-0.02 0 -0.04 0.02 -0.04 0.04 s0.02 0.02 0.04 0.02 c0 0 0.02 0 0.02 -0.02 s-0.02 -0.04 -0.02 -0.04 z M270.285 19.9 c0 -0.02 -0.04 -0.02 -0.08 -0.02 s-0.08 0 -0.08 0.02 c0.02 0.02 0.04 0.02 0.08 0.02 c0.02 0 0.06 0 0.08 -0.02 z M270.845 19.52 c-0.16 0 -0.16 0.24 -0.16 0.32 c0.04 -0.08 0.08 -0.12 0.2 -0.24 c0 -0.04 -0.02 -0.06 -0.04 -0.08 z M264.68500000000006 19.72 c-0.06 0.04 0.08 0.04 0.26 0.04 c-0.18 -0.02 -0.12 -0.12 -0.18 -0.16 c-0.04 0.04 -0.1 0.08 -0.1 0.1 s0 0.02 0.02 0.02 z M269.225 19.74 c-0.02 0 -0.02 0 -0.02 0.02 s0 0.04 0.02 0.04 s0.02 -0.02 0.02 -0.04 s0 -0.02 -0.02 -0.02 z M259.70500000000004 19.68 l0 0.06 c0.02 0 0.02 -0.02 0.02 -0.06 l-0.02 0 z M260.88500000000005 19.68 l0 0.04 l0.08 0 l0 -0.04 l-0.08 0 z M267.165 19.68 l0 0.04 l0.04 0 z M270.225 19.6 l0.1 0.04 c0.04 0 0.06 0 0.1 -0.04 l-0.04 -0.04 c-0.04 0 -0.06 0 -0.16 0.04 z M269.94500000000005 19.6 c0 -0.02 -0.02 -0.02 -0.02 -0.02 c-0.02 0 -0.02 0 -0.02 0.02 s0 0.04 0.02 0.04 c0 0 0.02 -0.02 0.02 -0.04 z M261.20500000000004 18.64 c-0.02 0 -0.04 0.02 -0.04 0.02 c0 0.02 0.02 0.04 0.04 0.04 s0.02 -0.02 0.02 -0.04 c0 0 0 -0.02 -0.02 -0.02 z M261.46500000000003 15.940000000000001 l0.04 0.02 c0.02 0 0.02 -0.02 0.02 -0.06 c-0.02 0 -0.04 0.02 -0.06 0.04 z M261.20500000000004 15.16 c-0.02 0 -0.04 0.02 -0.04 0.02 c0 0.02 0.02 0.02 0.04 0.02 s0.02 0 0.02 -0.02 c0 0 0 -0.02 -0.02 -0.02 z M261.50500000000005 14.3 c-0.02 0 -0.04 0.02 -0.04 0.04 c0 0 0.02 0.02 0.04 0.02 s0.02 -0.02 0.02 -0.02 c0 -0.02 0 -0.04 -0.02 -0.04 z M268.845 11.92 l0 0.08 l0.04 0 l0 -0.08 l-0.04 0 z M268.605 11.76 l0 0.06 l0.04 0 c0 -0.04 0 -0.04 -0.04 -0.06 z M260.14500000000004 11.64 l0.02 0 c0.02 0 -0.06 0 -0.06 0 l0.04 0 z M260.985 11.64 l0.1 0 l-0.04 -0.04 c-0.06 0 -0.06 0.02 -0.06 0.04 z M268.26500000000004 11.56 c0 0.08 0.12 0.08 0.16 0.08 c-0.06 -0.02 -0.08 -0.06 -0.1 -0.12 c-0.02 0 -0.04 0.02 -0.06 0.04 z M261.285 11.46 c0.1 0 0.16 0.04 0.22 0.1 l0.06 -0.04 c-0.08 0 -0.04 -0.16 -0.1 -0.2 l0.02 0 c-0.04 0 -0.2 0 -0.2 0.14 z M263.24500000000006 11.52 l0 0.04 l0.02 0 z M259.545 11.3 l0 0.22 c0.02 0 0.04 -0.02 0.08 -0.06 c0 -0.16 -0.02 -0.14 -0.08 -0.16 z M265.20500000000004 11.46 l0 0.06 l0.06 -0.06 l-0.06 0 z M259.985 11.4 l0.08 0.04 c0.08 0 0.12 -0.06 0.12 -0.14 c-0.06 0.02 -0.16 0 -0.2 0.1 z M260.52500000000003 11.36 c-0.1 0 -0.12 0.02 -0.12 0.08 l0.12 0 l0 -0.08 z M260.985 11.4 c-0.02 0 -0.02 0.02 -0.02 0.02 c0 0.02 0 0.02 0.02 0.02 l0 -0.04 z M261.94500000000005 11.4 c-0.02 0 -0.04 0.02 -0.04 0.02 c0 0.02 0.02 0.02 0.04 0.02 s0.02 0 0.02 -0.02 c0 0 0 -0.02 -0.02 -0.02 z M265.74500000000006 11.2 c-0.02 0 -0.04 0.02 -0.04 0.04 s0.02 0.04 0.04 0.04 s0.02 -0.02 0.02 -0.04 s0 -0.04 -0.02 -0.04 z M286.59000000000003 20.2 c-0.44 0 -0.84 -0.26 -1.28 -0.3 c-0.12 0 -0.32 -0.32 -0.6 -0.32 c-0.14 0 -0.34 -0.42 -0.56 -0.42 c-0.36 -0.38 -0.24 -0.24 -0.26 -0.3 l0 0.02 c0 -0.02 -0.04 -0.08 -0.52 -0.56 c0 -0.16 -0.22 -0.24 -0.42 -0.74 c0 -0.02 0.02 -0.02 0.02 -0.04 c0 -0.08 -0.48 -0.86 -0.48 -1.98 c0 -0.72 0.22 -1.1 0.22 -1.66 c0.14 -0.16 0.16 -0.22 0.16 -0.26 c0 -0.02 -0.04 -0.02 -0.04 -0.06 c0 -0.06 0.06 -0.2 0.38 -0.62 c0 -0.26 0.24 -0.22 0.32 -0.46 l0 0.02 c-0.1 -0.26 1.24 -1.08 1.38 -1.28 l0.02 0.02 c0.02 0 0.5 -0.5 3 -0.5 c0.68 0 1.14 0.4 1.3 0.42 c0.04 0 0.06 0 0.1 -0.02 c-0.02 0 0.74 0.36 0.8 0.62 c0 0.08 0.38 0.38 0.38 0.52 c0 0.06 0.16 0.54 0.16 0.74 c0 0.64 -0.34 0.66 -0.34 0.94 c0 0 -0.12 0.32 -0.58 0.38 c0 0.06 -0.56 0.06 -0.56 0.1 c-0.02 0 -0.02 0.02 -0.02 0.02 c-0.04 0 -0.54 -0.38 -0.78 -0.38 l0.02 0.02 c-0.1 0 -0.4 -0.52 -0.4 -0.9 c0 -0.5 0.16 -0.48 0.22 -0.82 c0.48 -0.26 0.16 -0.22 0.4 -0.54 c-0.02 0.02 -0.02 0.02 -0.04 0.02 c0 -0.04 0.02 -0.08 0.02 -0.16 c0 -0.14 -0.08 -0.28 -0.44 -0.28 c0.04 0 -0.48 -0.16 -0.52 -0.28 c-1.82 0 -1.4 0.36 -2 0.74 c-0.28 -0.02 -0.42 2.74 -0.42 3.52 c0 2.7 0.34 3.54 0.52 3.54 c0.04 0 0.02 0 0.02 -0.02 c0 0 0.3 0.6 0.94 0.6 c0.84 0 1.18 -0.02 1.46 -0.02 c0 0 0.68 -0.08 1.02 -0.56 c0.26 0 0.9 -0.8 0.9 -1.14 c0.38 -0.86 0.34 -0.9 0.66 -0.9 c0 0 0 0.02 0.02 0.02 c0 0 0.04 -0.02 0.06 -0.02 c0.08 0 0.16 0.04 0.16 0.22 c0 0.86 -0.32 0.76 -0.44 1.22 l0 -0.02 c-0.04 0 -0.28 0.64 -0.54 0.76 c-0.16 0.16 -0.3 0.12 -0.94 0.76 c-0.48 0.12 -0.62 0.14 -0.68 0.2 l-0.34 0 c-0.02 0 0.02 -0.08 -0.04 -0.08 c-0.02 0 -0.16 0 -0.16 0.02 s0.02 0.04 0.08 0.06 c-0.1 0.14 -0.18 0.18 -0.28 0.2 l0 -0.06 l-0.28 0 l-0.04 0.06 l-0.06 -0.04 l0.04 -0.02 c-0.16 0 -0.18 0 -0.2 0.02 c-0.2 0 -0.16 0 -0.24 -0.02 c0 0 -0.02 0 -0.04 0.02 z M286.55 20.04 c0.06 0 0.12 0.04 0.14 0.02 c0 -0.02 -0.02 -0.04 -0.02 -0.06 c-0.08 0 -0.08 0 -0.12 0.04 z M288.21000000000004 19.98 c-0.02 0 -0.04 0.02 -0.04 0.04 c0 0 0.02 0.02 0.04 0.02 l0.02 -0.02 c0 -0.02 -0.02 -0.04 -0.02 -0.04 z M286.83000000000004 19.74 l0 0.12 l0.02 -0.08 z M288.95 19.7 c-0.1 0 -0.12 0.04 -0.12 0.1 c0 0.02 -0.02 0.08 0.02 0.08 c0.02 0 0.1 -0.08 0.1 -0.18 z M288.39000000000004 19.62 l0 0.04 s0.1 0.04 0.14 0.04 l0.06 -0.02 c0 -0.08 -0.08 -0.06 -0.2 -0.06 z M288.11 19.66 c-0.02 0 -0.04 0.02 -0.04 0.02 s0.02 0.02 0.04 0.02 l0 -0.04 z M289.01 19.62 c0.02 0.02 0.06 0.04 0.06 0.04 l0 0 c0.04 0 0.1 -0.04 0.12 -0.08 c-0.16 0 -0.18 -0.02 -0.18 0.04 z M288.83000000000004 19.58 l0 0.04 l0 -0.06 l0 0.02 z M288.79 19.52 c-0.02 0 -0.04 0 -0.04 0.02 l0.04 0 l0.02 0 c0 -0.02 0 -0.02 -0.02 -0.02 z M289.07 19.32 c-0.02 0 -0.04 0.02 -0.04 0.04 c0 0 0.02 0.02 0.04 0.02 s0.02 -0.02 0.02 -0.02 c0 -0.02 0 -0.04 -0.02 -0.04 z M289.61 18.92 c0.06 0.04 0.1 0.04 0.14 0.04 l-0.06 -0.12 c-0.06 0 -0.08 0.02 -0.08 0.08 z M290.05 18.46 c0 0.02 0.04 0.02 0.04 0.02 z M283.41 17.66 c-0.02 0 -0.04 0.02 -0.04 0.04 l0.04 0 l0.02 0 c0 -0.02 0 -0.04 -0.02 -0.04 z M283.11 17.4 l0 0.02 l0.04 -0.02 l-0.04 0 z M290.75 17.259999999999998 c0 0.04 0.02 0.12 0.04 0.12 s0.02 -0.02 0.02 -0.04 s-0.02 -0.04 -0.06 -0.1 l0 0.02 z M290.51 17.259999999999998 l0 0.08 c0.02 -0.02 0.04 -0.04 0.04 -0.08 l-0.04 0 z M290.63 17 l0 0.04 l0.12 0 l0 -0.04 l-0.12 0 z M282.79 16.4 c-0.02 0 -0.04 0.02 -0.04 0.04 c0 0 0.02 0.02 0.04 0.02 s0.02 -0.02 0.02 -0.02 c0 -0.02 0 -0.04 -0.02 -0.04 z M282.63 15.719999999999999 l0 0.02 l0.04 0 z M282.73 14.96 c-0.02 0.02 -0.04 0.02 -0.04 0.02 c0 0.02 0.02 0.04 0.04 0.04 c0 0 0 -0.02 0.02 -0.04 z M282.73 14.82 l-0.02 0 c0 0.02 0 0.02 0.02 0.02 c0 0 0.02 0 0.02 -0.02 l-0.02 0 z M289.61 14.34 c-0.02 0 -0.02 0.02 -0.02 0.04 c0 0 0 0.02 0.02 0.02 s0.02 -0.02 0.02 -0.02 c0 -0.02 0 -0.04 -0.02 -0.04 z M289.33000000000004 14.24 c-0.02 0 -0.04 0.02 -0.04 0.04 c0 0 0.02 0.02 0.04 0.02 s0.02 -0.02 0.02 -0.02 c0 -0.02 0 -0.04 -0.02 -0.04 z M288.17 13.379999999999999 c-0.02 0 -0.04 0 -0.04 0.02 s0.02 0.04 0.04 0.04 s0.02 -0.02 0.02 -0.04 s0 -0.02 -0.02 -0.02 z M290.51 13.34 c-0.08 0 -0.1 0.04 -0.12 0.1 c0.06 0.02 0.12 -0.06 0.12 -0.1 z M288.17 12.96 c-0.02 0 -0.04 0.02 -0.04 0.04 c0 0 0.02 0.02 0.04 0.02 s0.02 -0.02 0.02 -0.02 c0 -0.02 0 -0.04 -0.02 -0.04 z M290.43 12.64 c-0.1 0 -0.08 0.04 -0.08 0.08 c0.06 -0.02 0.1 -0.06 0.08 -0.08 z M289.53000000000003 11.5 c-0.02 0 -0.04 0.02 -0.04 0.04 s0.02 0.04 0.04 0.04 s0.02 -0.02 0.02 -0.04 s0 -0.04 -0.02 -0.04 z M289.01 11.46 c-0.02 0 -0.02 0.02 -0.02 0.02 c0 0.02 0 0.02 0.02 0.02 l0 -0.04 z M285.21000000000004 11.4 l-0.06 0.04 l0.16 0 s-0.08 -0.04 -0.1 -0.04 z M289.07 11.4 c-0.02 0 -0.04 0.02 -0.04 0.04 c0 0 0.02 0.02 0.04 0.02 s0.02 -0.02 0.02 -0.02 c0 -0.02 0 -0.04 -0.02 -0.04 z M286.05 11.12 c0.08 0.08 0.14 0.16 0.2 0.22 c0 -0.14 0.1 -0.22 0.24 -0.22 l-0.06 -0.08 c-0.24 0 -0.3 0.06 -0.38 0.08 z M288.83000000000004 11.24 l0 0.04 c0.02 0 0.02 0 0.02 -0.02 c0 0 0 -0.02 -0.02 -0.02 z M287.49 10.88 c-0.14 0 -0.12 0.12 -0.12 0.16 l0.16 0 c0 -0.02 -0.02 -0.14 -0.04 -0.16 z M302.735 19.66 c0 -0.12 0.04 -0.06 0.04 -0.16 c-0.02 0 -0.12 0.02 -0.14 0.02 c-0.06 -0.14 -0.2 -0.16 -0.2 -0.52 l0.04 -0.06 l-0.08 0 l0 -0.66 c0.12 -0.04 0.08 -0.22 0.14 -0.3 l0 0.02 s0.18 -0.4 0.32 -0.46 l0.4 -0.16 c0.5 -0.2 0.38 -0.24 0.74 -0.24 c0.12 0 0.48 0.24 0.56 0.2 c0 0.04 0.38 0.08 0.88 0.58 c0 0.14 0.22 0.2 0.22 0.6 c0 0.28 -0.02 0.44 -0.06 0.66 l0 -0.02 s-0.06 0.58 -0.58 0.72 c-0.52 0.44 -0.78 0.2 -0.94 0.32 c-0.46 0 -0.72 -0.2 -0.98 -0.2 c-0.02 0.02 -0.04 0.02 -0.04 0.02 c-0.08 0 -0.06 -0.22 -0.32 -0.36 z M304.035 20.04 l0.08 0.04 l0.04 -0.04 l-0.08 -0.04 z M304.855 19.62 c-0.02 0 -0.04 0.02 -0.04 0.04 c0 0 0.02 0.02 0.04 0.02 s0.02 -0.02 0.02 -0.02 c0 -0.02 0 -0.04 -0.02 -0.04 z M302.735 19.46 c0.02 0 0.02 0.02 0.02 0.04 c0 0 0 0.02 -0.02 0.02 s-0.04 -0.02 -0.04 -0.02 c0 -0.02 0.02 -0.04 0.04 -0.04 z M302.57500000000005 18.88 c-0.04 0.02 -0.06 0.02 -0.06 0.04 l0.02 0.02 l0.04 0 l0 -0.06 z M302.855 18.6 c0 -0.02 -0.02 -0.02 -0.04 -0.02 s-0.04 0 -0.04 0.02 s0.02 0.02 0.04 0.02 s0.04 0 0.04 -0.02 z M302.63500000000005 18.16 c-0.06 0.06 -0.08 0.1 -0.1 0.16 c0.08 0 0.06 -0.02 0.12 -0.04 c0 -0.04 0 -0.08 -0.02 -0.12 z M302.89500000000004 17.82 c0 0.02 0.02 0.04 0.04 0.06 c0.14 0 0.3 -0.3 0.3 -0.3 c0.04 0 0.12 0.02 0.24 0.14 c0.06 0 0.14 -0.18 0.18 -0.26 c-0.08 0 -0.42 0.02 -0.76 0.36 z M304.37500000000006 17.72 c0 -0.02 -0.02 -0.02 -0.02 -0.02 c-0.02 0 -0.02 0 -0.02 0.02 s0 0.02 0.02 0.02 c0 0 0.02 0 0.02 -0.02 z M304.19500000000005 17.56 c0.04 0.04 0.08 0.08 0.12 0.08 c0.06 0 0.12 -0.02 0.12 -0.1 l-0.08 -0.04 c-0.06 0 -0.12 0.04 -0.16 0.06 z M303.915 17.38 c-0.02 0 -0.04 0.02 -0.04 0.02 c0 0.02 0.02 0.02 0.04 0.02 s0.02 0 0.02 -0.02 c0 0 0 -0.02 -0.02 -0.02 z"/></g>
			</g>
		</svg>
	